<svg xmlns="http://www.w3.org/2000/svg" width="512" height="512" viewBox="0 0 512 512">
<g>
<path d="M 291.47,39.28 L 292.24,39.29 L 294.18,39.34 L 295.22,39.37 L 297.71,39.47 L 299.03,39.53 L 302.09,39.67 L 303.70,39.75 L 307.37,39.94 L 309.28,40.04 L 313.57,40.28 L 315.80,40.40 L 320.75,40.69 L 323.31,40.84 L 328.95,41.18 L 331.85,41.36 L 338.20,41.75 L 341.46,41.95 L 348.55,42.40 L 352.18,42.63 L 360.03,43.13 L 364.06,43.39 L 372.70,43.96 L 377.12,44.24 L 386.58,44.87 L 391.42,45.19 L 401.73,45.87 L 418.17,46.96 L 420.18,47.10 L 423.85,47.35 L 425.64,47.48 L 428.91,47.72 L 430.49,47.84 L 433.38,48.08 L 434.79,48.20 L 437.33,48.44 L 438.57,48.56 L 440.80,48.81 L 441.88,48.93 L 443.82,49.20 L 445.71,49.48 L 448.75,50.11 L 450.17,50.44 L 452.48,51.23 L 453.57,51.65 L 455.39,52.67 L 456.26,53.21 L 457.84,54.50 L 460.21,56.81 L 460.65,57.28 L 461.67,58.42 L 462.20,59.02 L 463.37,60.38 L 464.58,61.80 L 467.33,65.18 L 468.74,66.94 L 471.73,70.76 L 473.23,72.70 L 476.24,76.67 L 477.73,78.65 L 480.53,82.46 L 481.89,84.32 L 484.26,87.69 L 484.82,88.49 L 485.81,89.95 L 486.28,90.65 L 487.09,91.90 L 487.47,92.49 L 488.06,93.49 L 488.68,94.65 L 489.49,96.40 L 490.64,100.28 L 491.13,102.25 L 491.65,106.36 L 491.82,108.41 L 491.67,112.44 L 490.67,118.06 L 490.64,118.15 L 490.50,118.57 L 490.42,118.81 L 490.17,119.52 L 490.03,119.91 L 489.67,120.91 L 489.48,121.44 L 489.01,122.72 L 488.77,123.39 L 488.20,124.94 L 487.91,125.75 L 487.24,127.57 L 486.89,128.51 L 486.13,130.58 L 485.74,131.65 L 484.88,133.97 L 484.00,136.35 L 481.98,141.83 L 480.92,144.69 L 478.56,151.07 L 477.33,154.36 L 474.65,161.58 L 473.28,165.28 L 470.30,173.27 L 468.78,177.36 L 465.54,186.06 L 463.89,190.49 L 460.41,199.85 L 458.63,204.60 L 454.92,214.54 L 453.04,219.58 L 449.13,230.05 L 447.16,235.34 L 443.07,246.28 L 441.01,251.80 L 436.77,263.14 L 434.63,268.85 L 430.25,280.54 L 423.57,298.38 L 421.40,304.18 L 417.26,315.23 L 415.23,320.67 L 411.36,331.00 L 409.45,336.08 L 405.84,345.72 L 404.07,350.45 L 400.70,359.42 L 399.05,363.83 L 395.92,372.16 L 394.39,376.25 L 391.49,383.96 L 390.07,387.74 L 387.39,394.86 L 386.07,398.35 L 383.60,404.90 L 382.39,408.11 L 380.11,414.12 L 379.00,417.06 L 376.91,422.55 L 375.88,425.24 L 373.97,430.24 L 373.04,432.68 L 371.29,437.21 L 370.44,439.42 L 368.84,443.51 L 368.07,445.50 L 366.62,449.17 L 365.92,450.96 L 364.61,454.24 L 363.97,455.83 L 362.79,458.74 L 362.21,460.16 L 361.14,462.73 L 360.62,463.97 L 359.66,466.22 L 359.19,467.31 L 358.32,469.27 L 357.90,470.21 L 357.12,471.90 L 356.35,473.53 L 355.04,476.09 L 354.41,477.27 L 353.30,479.08 L 352.76,479.91 L 351.78,481.18 L 351.30,481.76 L 350.36,482.67 L 347.31,485.08 L 345.96,486.11 L 342.56,487.89 L 340.76,488.73 L 336.74,490.07 L 334.68,490.67 L 330.41,491.45 L 324.14,491.87 L 323.92,491.87 L 323.10,491.84 L 322.63,491.82 L 321.35,491.75 L 320.66,491.71 L 318.95,491.62 L 318.04,491.57 L 315.92,491.45 L 314.82,491.38 L 312.32,491.24 L 311.03,491.16 L 308.18,490.99 L 306.72,490.90 L 303.54,490.70 L 301.92,490.60 L 298.45,490.39 L 294.91,490.17 L 287.04,489.67 L 283.00,489.41 L 274.29,488.85 L 269.84,488.56 L 260.50,487.95 L 255.77,487.64 L 246.00,486.99 L 243.53,486.83 L 238.83,486.52 L 236.52,486.36 L 232.11,486.07 L 229.95,485.92 L 225.83,485.65 L 223.80,485.51 L 219.96,485.25 L 216.19,484.99 L 209.42,484.52 L 206.16,484.29 L 200.35,483.86 L 197.56,483.65 L 192.64,483.25 L 190.27,483.06 L 186.13,482.67 L 184.16,482.48 L 180.72,482.11 L 179.08,481.92 L 176.26,481.54 L 174.91,481.34 L 172.62,480.94 L 171.53,480.74 L 169.68,480.30 L 168.79,480.08 L 167.29,479.60 L 166.58,479.35 L 165.35,478.82 L 164.16,478.26 L 162.22,476.93 L 159.26,474.49 L 158.92,474.20 L 158.04,473.33 L 157.56,472.85 L 156.44,471.64 L 155.86,471.00 L 154.54,469.51 L 153.86,468.73 L 152.39,466.99 L 150.88,465.21 L 147.55,461.12 L 145.86,459.03 L 142.39,454.62 L 140.66,452.41 L 137.36,448.07 L 135.76,445.95 L 132.92,442.06 L 132.26,441.14 L 131.07,439.44 L 130.50,438.62 L 129.53,437.18 L 129.08,436.49 L 128.37,435.34 L 127.65,434.00 L 126.92,432.43 L 126.07,429.02 L 125.91,428.13 L 125.71,426.19 L 125.60,423.00 L 125.60,422.25 L 125.73,420.69 L 125.82,419.87 L 126.22,417.87 L 126.34,417.32 L 126.66,416.08 L 126.83,415.42 L 127.27,413.93 L 127.51,413.15 L 128.08,411.36 L 128.38,410.42 L 129.10,408.28 L 129.48,407.16 L 130.37,404.62 L 130.83,403.30 L 131.90,400.32 L 132.46,398.76 L 133.73,395.28 L 134.40,393.47 L 135.88,389.44 L 136.66,387.35 L 138.38,382.72 L 139.27,380.33 L 141.25,375.05 L 142.27,372.33 L 144.51,366.36 L 148.20,356.56 L 170.76,296.62 L 163.10,286.56 L 161.64,284.63 L 159.13,281.16 L 157.94,279.48 L 155.95,276.39 L 155.01,274.87 L 153.47,272.01 L 152.76,270.59 L 151.63,267.81 L 151.11,266.42 L 150.34,263.58 L 149.99,262.14 L 149.51,259.10 L 149.31,257.53 L 149.07,254.14 L 148.94,248.50 L 148.94,245.55 L 149.48,239.61 L 149.84,236.64 L 151.11,230.67 L 151.83,227.69 L 153.80,221.72 L 154.88,218.75 L 157.54,212.82 L 158.96,209.86 L 162.30,204.00 L 164.06,201.08 L 168.06,195.31 L 170.15,192.44 L 174.80,186.79 L 182.50,178.50 L 185.28,175.72 L 191.04,170.55 L 193.94,168.04 L 199.90,163.44 L 202.89,161.21 L 209.00,157.22 L 218.26,151.95 L 226.50,147.73 L 242.41,105.11 L 243.51,102.18 L 245.65,96.47 L 246.71,93.65 L 248.74,88.26 L 249.74,85.61 L 251.63,80.66 L 252.54,78.26 L 254.22,73.87 L 255.03,71.77 L 256.45,68.08 L 257.13,66.34 L 258.25,63.48 L 258.51,62.82 L 258.97,61.69 L 259.18,61.15 L 259.54,60.26 L 259.71,59.85 L 259.98,59.23 L 260.26,58.61 L 260.88,57.35 L 262.43,54.95 L 263.25,53.76 L 265.15,51.52 L 266.15,50.43 L 268.35,48.40 L 269.48,47.41 L 271.93,45.63 L 273.17,44.77 L 275.80,43.28 L 277.13,42.57 L 279.88,41.40 L 281.26,40.86 L 284.07,40.07 L 288.30,39.33 L 288.59,39.30 L 289.52,39.27 L 290.04,39.26 M 150.42,451.25 L 150.49,451.50 L 150.67,451.83 L 150.83,452.06 L 151.61,453.21 L 152.20,454.03 L 153.52,455.79 L 154.33,456.84 L 156.04,459.02 L 156.99,460.21 L 160.64,464.64 L 162.80,467.05 L 163.86,468.02 L 166.00,469.81 L 167.18,470.52 L 169.64,471.81 L 171.12,472.32 L 174.27,473.24 L 176.22,473.60 L 178.24,473.94 L 179.37,474.10 L 181.70,474.40 L 183.00,474.54 L 185.70,474.81 L 187.19,474.94 L 190.29,475.20 L 192.00,475.33 L 195.55,475.59 L 197.50,475.72 L 201.53,476.00 L 203.75,476.14 L 210.40,476.59 L 215.49,476.93 L 218.30,477.11 L 224.08,477.50 L 227.16,477.71 L 233.43,478.13 L 236.68,478.35 L 249.94,479.24 L 256.54,479.68 L 263.10,480.12 L 266.28,480.34 L 272.54,480.76 L 275.50,480.96 L 280.81,481.32 L 283.31,481.48 L 288.18,481.80 L 290.45,481.94 L 294.90,482.22 L 296.96,482.34 L 301.00,482.58 L 302.87,482.68 L 306.51,482.87 L 308.18,482.96 L 311.45,483.11 L 312.94,483.18 L 315.84,483.30 L 317.16,483.34 L 319.72,483.42 L 320.87,483.44 L 323.10,483.48 L 324.10,483.49 L 326.02,483.49 L 326.86,483.48 L 328.49,483.45 L 329.19,483.41 L 330.53,483.34 L 331.11,483.29 L 333.14,483.06 L 333.80,482.88 L 334.90,482.50 L 335.14,482.26 L 335.28,481.83 L 335.22,481.40 L 335.11,481.10 L 334.83,480.46 L 334.61,480.05 L 334.12,479.19 L 333.79,478.67 L 333.07,477.57 L 332.62,476.92 L 331.66,475.57 L 331.09,474.80 L 329.89,473.19 L 329.20,472.28 L 327.74,470.39 L 326.92,469.34 L 323.30,464.72 L 321.17,462.00 L 320.31,460.90 L 319.49,459.86 L 319.15,459.41 L 318.51,458.59 L 318.26,458.28 L 317.82,457.71 L 317.69,457.53 L 317.48,457.26 L 317.47,457.24 L 317.06,457.26 L 316.48,457.40 L 316.06,457.52 L 314.12,458.12 L 312.91,458.56 L 310.40,459.29 L 308.40,459.65 L 307.06,459.76 L 305.64,459.86 L 304.81,459.89 L 303.06,459.94 L 302.04,459.94 L 299.88,459.94 L 298.63,459.91 L 296.00,459.86 L 294.48,459.80 L 291.30,459.69 L 289.48,459.61 L 285.67,459.43 L 283.52,459.32 L 279.02,459.08 L 276.49,458.94 L 271.23,458.64 L 268.29,458.46 L 262.20,458.09 L 258.82,457.88 L 251.82,457.44 L 247.95,457.20 L 239.97,456.69 L 235.59,456.41 L 231.15,456.12 L 228.82,455.97 L 224.10,455.66 L 221.64,455.50 L 207.39,454.58 L 198.34,454.01 L 194.09,453.74 L 185.81,453.22 L 182.02,452.99 L 178.30,452.76 L 176.55,452.66 L 173.10,452.45 L 171.48,452.35 L 168.33,452.17 L 166.88,452.08 L 164.05,451.91 L 162.76,451.84 L 160.28,451.70 L 159.17,451.64 L 157.06,451.52 L 156.15,451.48 L 154.43,451.39 L 153.72,451.35 L 152.42,451.29 L 151.93,451.27 L 151.08,451.24 L 150.82,451.24 L 150.43,451.24 M 467.66,82.62 L 467.48,83.15 L 467.26,83.75 L 467.11,84.17 L 466.77,85.09 L 466.56,85.67 L 466.11,86.89 L 465.84,87.62 L 465.28,89.15 L 464.96,90.02 L 464.28,91.83 L 463.91,92.84 L 463.13,94.93 L 462.71,96.07 L 461.83,98.43 L 461.36,99.70 L 459.37,105.05 L 458.24,108.08 L 455.89,114.38 L 454.60,117.85 L 451.93,125.01 L 450.48,128.88 L 447.52,136.82 L 445.94,141.05 L 442.71,149.68 L 441.01,154.22 L 437.56,163.46 L 435.76,168.27 L 432.11,178.03 L 430.22,183.08 L 426.41,193.27 L 424.45,198.51 L 420.50,209.05 L 418.48,214.43 L 414.43,225.25 L 412.38,230.73 L 404.11,252.81 L 399.94,263.92 L 391.61,286.14 L 387.52,297.07 L 383.43,307.96 L 381.43,313.31 L 377.43,323.95 L 375.48,329.15 L 371.61,339.47 L 369.73,344.48 L 366.01,354.38 L 364.22,359.15 L 360.68,368.56 L 359.00,373.05 L 355.68,381.88 L 354.11,386.05 L 351.04,394.21 L 349.61,398.01 L 346.82,405.43 L 345.54,408.82 L 343.07,415.40 L 341.95,418.35 L 339.82,424.00 L 338.89,426.46 L 337.99,428.85 L 337.58,429.94 L 336.77,432.07 L 336.41,433.03 L 335.71,434.88 L 335.39,435.70 L 334.80,437.26 L 334.54,437.93 L 334.06,439.20 L 333.86,439.72 L 333.49,440.68 L 333.35,441.04 L 333.10,441.68 L 333.02,441.88 L 332.89,442.20 L 332.88,442.23 L 332.14,443.36 L 331.41,444.35 L 330.96,444.92 L 328.95,447.35 L 327.88,448.51 L 323.99,452.73 L 328.22,458.12 L 330.28,460.74 L 331.91,462.81 L 332.78,463.92 L 334.53,466.15 L 335.39,467.24 L 337.07,469.37 L 337.81,470.30 L 339.28,472.12 L 339.98,472.92 L 341.33,474.42 L 341.92,475.00 L 343.02,476.05 L 343.43,476.35 L 344.13,476.79 L 344.28,476.74 L 345.09,476.33 L 345.67,475.86 L 345.99,475.47 L 346.68,474.60 L 347.07,473.96 L 347.92,472.53 L 348.42,471.55 L 349.48,469.42 L 350.11,468.04 L 351.45,465.06 L 352.25,463.21 L 353.07,461.28 L 353.51,460.22 L 354.42,458.02 L 354.91,456.82 L 355.92,454.33 L 356.47,452.97 L 357.59,450.18 L 358.19,448.66 L 359.43,445.54 L 360.09,443.85 L 361.45,440.38 L 362.18,438.51 L 363.67,434.67 L 364.46,432.61 L 366.09,428.40 L 366.95,426.14 L 368.73,421.52 L 369.67,419.05 L 371.59,414.01 L 372.61,411.33 L 374.69,405.85 L 375.80,402.95 L 378.05,397.01 L 379.24,393.87 L 381.66,387.46 L 382.94,384.07 L 385.54,377.17 L 386.92,373.52 L 389.71,366.11 L 391.18,362.20 L 394.17,354.25 L 395.74,350.07 L 398.93,341.58 L 400.61,337.12 L 404.01,328.05 L 405.80,323.30 L 409.42,313.65 L 411.32,308.60 L 415.16,298.35 L 417.17,292.98 L 423.14,277.07 L 426.94,266.95 L 428.74,262.14 L 432.30,252.66 L 433.99,248.16 L 437.31,239.30 L 438.88,235.10 L 441.98,226.84 L 443.44,222.93 L 446.32,215.24 L 447.68,211.61 L 450.35,204.47 L 451.61,201.11 L 454.08,194.51 L 455.24,191.40 L 457.51,185.30 L 458.58,182.44 L 460.67,176.83 L 461.64,174.20 L 463.55,169.06 L 464.45,166.66 L 466.19,161.96 L 467.00,159.77 L 468.58,155.49 L 469.31,153.50 L 470.73,149.62 L 471.39,147.82 L 472.67,144.32 L 473.26,142.70 L 474.40,139.55 L 474.92,138.11 L 475.93,135.29 L 476.39,134.00 L 477.28,131.50 L 477.68,130.35 L 478.45,128.14 L 478.80,127.13 L 479.47,125.19 L 479.76,124.30 L 480.85,121.02 L 481.27,119.69 L 482.02,117.24 L 482.29,116.26 L 482.77,114.45 L 482.92,113.73 L 483.18,112.41 L 483.26,111.86 L 483.41,109.93 L 483.42,109.00 L 483.38,106.02 L 483.28,104.27 L 483.17,103.47 L 482.60,100.45 L 481.96,98.94 L 481.26,97.42 L 480.80,96.61 L 479.80,94.92 L 479.17,93.98 L 477.81,92.01 L 476.99,90.88 L 475.23,88.50 L 474.18,87.12 L 468.59,79.74 M 289.81,47.29 L 288.05,47.37 L 287.50,47.45 L 285.35,47.94 L 283.81,48.43 L 283.01,48.75 L 279.76,50.22 L 278.17,51.16 L 275.06,53.14 L 273.73,54.22 L 272.45,55.31 L 271.89,55.86 L 270.85,56.95 L 270.44,57.49 L 270.13,58.01 L 269.84,58.58 L 269.66,58.97 L 269.27,59.80 L 269.04,60.32 L 268.56,61.41 L 268.29,62.04 L 267.12,64.79 L 266.43,66.48 L 264.97,70.03 L 264.15,72.05 L 262.46,76.24 L 261.55,78.52 L 259.70,83.20 L 258.73,85.67 L 254.76,95.83 L 252.75,101.03 L 248.76,111.43 L 246.92,116.29 L 245.12,121.07 L 244.29,123.30 L 242.68,127.64 L 241.96,129.59 L 240.60,133.33 L 240.03,134.92 L 238.98,137.90 L 238.59,139.06 L 238.22,140.16 L 238.08,140.61 L 237.82,141.46 L 237.72,141.78 L 237.57,142.36 L 237.53,142.54 L 237.50,142.82 L 237.52,142.85 L 238.38,142.82 L 239.59,142.63 L 240.45,142.47 L 242.32,142.10 L 243.43,141.86 L 245.75,141.35 L 247.00,141.05 L 256.56,139.24 L 262.75,138.48 L 265.75,138.34 L 271.68,138.19 L 274.53,138.34 L 280.15,138.80 L 282.82,139.25 L 288.09,140.29 L 290.57,141.04 L 295.44,142.67 L 297.71,143.70 L 302.14,145.91 L 304.18,147.23 L 308.13,150.01 L 309.92,151.62 L 311.23,152.92 L 312.37,154.14 L 313.06,154.91 L 314.51,156.55 L 315.33,157.51 L 317.04,159.50 L 317.97,160.61 L 319.88,162.89 L 320.90,164.12 L 322.97,166.62 L 324.04,167.94 L 328.44,173.35 L 330.67,176.14 L 335.13,181.75 L 337.24,184.46 L 341.35,189.75 L 343.14,192.11 L 344.87,194.41 L 345.65,195.46 L 347.13,197.47 L 347.76,198.35 L 348.95,200.02 L 349.41,200.70 L 350.24,201.96 L 350.50,202.41 L 352.03,205.38 L 352.96,207.56 L 353.37,208.73 L 354.91,213.62 L 355.46,216.25 L 356.39,221.58 L 356.60,224.25 L 356.83,229.56 L 356.66,232.04 L 355.72,239.72 L 354.71,244.84 L 354.02,247.40 L 352.52,252.52 L 351.60,255.06 L 349.63,260.14 L 348.48,262.66 L 346.08,267.67 L 344.72,270.14 L 341.89,275.05 L 340.33,277.46 L 337.11,282.25 L 335.37,284.59 L 331.78,289.23 L 329.86,291.48 L 325.93,295.94 L 323.84,298.09 L 319.59,302.34 L 317.35,304.37 L 312.80,308.38 L 310.43,310.29 L 305.61,314.03 L 303.11,315.79 L 298.04,319.24 L 295.42,320.85 L 290.13,323.97 L 287.41,325.40 L 281.92,328.18 L 279.11,329.42 L 273.45,331.82 L 270.56,332.87 L 261.54,335.72 L 255.57,337.21 L 252.61,337.74 L 246.73,338.67 L 243.85,338.93 L 238.11,339.30 L 235.31,339.28 L 229.75,339.10 L 227.06,338.81 L 221.74,338.07 L 219.18,337.50 L 214.13,336.21 L 211.73,335.36 L 207.00,333.51 L 204.77,332.39 L 199.86,329.31 L 196.41,326.59 L 194.60,324.91 L 190.95,321.34 L 189.07,319.26 L 185.28,314.90 L 183.36,312.44 L 181.05,309.55 L 179.65,307.86 L 179.07,307.19 L 177.99,305.97 L 177.63,305.59 L 177.02,305.00 L 176.94,305.00 L 176.77,305.29 L 176.55,305.78 L 176.39,306.15 L 176.04,307.00 L 175.81,307.55 L 175.33,308.74 L 175.04,309.46 L 174.44,310.97 L 174.10,311.85 L 173.38,313.67 L 172.99,314.69 L 172.17,316.79 L 171.72,317.95 L 170.80,320.32 L 170.31,321.60 L 168.25,326.97 L 167.10,329.97 L 164.73,336.19 L 163.45,339.57 L 160.83,346.49 L 159.45,350.16 L 156.63,357.63 L 155.18,361.52 L 151.94,370.17 L 149.95,375.49 L 149.04,377.94 L 147.27,382.70 L 146.46,384.88 L 144.90,389.11 L 144.19,391.04 L 142.82,394.78 L 142.20,396.48 L 141.01,399.77 L 140.48,401.25 L 139.45,404.11 L 139.00,405.40 L 138.14,407.88 L 137.76,408.98 L 137.04,411.11 L 136.73,412.05 L 136.15,413.86 L 135.90,414.66 L 135.44,416.18 L 135.24,416.85 L 134.89,418.14 L 134.75,418.70 L 134.28,420.74 L 134.16,421.53 L 134.00,422.97 L 134.00,423.57 L 134.32,427.93 L 134.89,430.41 L 135.40,431.52 L 136.55,433.67 L 137.38,434.70 L 139.22,436.74 L 140.44,437.81 L 144.05,440.37 L 145.41,441.01 L 146.21,441.28 L 147.90,441.79 L 148.91,442.01 L 151.06,442.43 L 152.36,442.61 L 155.13,442.96 L 156.80,443.12 L 160.33,443.44 L 162.43,443.60 L 166.88,443.91 L 169.50,444.08 L 171.63,444.22 L 173.31,444.33 L 174.27,444.39 L 176.27,444.52 L 177.39,444.60 L 179.69,444.75 L 180.95,444.83 L 186.24,445.18 L 189.23,445.38 L 195.43,445.79 L 198.81,446.01 L 205.73,446.47 L 209.38,446.71 L 216.81,447.21 L 220.64,447.46 L 236.23,448.50 L 244.00,449.02 L 251.71,449.53 L 255.43,449.76 L 262.78,450.23 L 266.25,450.44 L 273.07,450.85 L 276.22,451.04 L 282.34,451.39 L 285.08,451.53 L 290.34,451.81 L 292.58,451.92 L 294.77,452.03 L 295.75,452.07 L 297.65,452.16 L 298.49,452.19 L 300.09,452.25 L 300.76,452.27 L 302.04,452.31 L 302.54,452.32 L 303.47,452.33 L 303.80,452.32 L 304.36,452.31 L 304.50,452.29 L 310.65,450.82 L 314.53,449.18 L 316.31,448.08 L 319.72,445.68 L 321.19,444.24 L 323.94,441.21 L 325.00,439.50 L 325.18,439.11 L 325.39,438.62 L 325.53,438.27 L 325.85,437.49 L 326.05,436.98 L 326.48,435.91 L 326.73,435.27 L 327.26,433.91 L 327.57,433.13 L 328.20,431.50 L 328.56,430.58 L 329.29,428.68 L 329.69,427.64 L 330.52,425.48 L 330.97,424.30 L 332.87,419.36 L 333.95,416.53 L 336.20,410.64 L 337.45,407.35 L 340.02,400.57 L 341.43,396.87 L 344.32,389.25 L 345.87,385.16 L 349.04,376.78 L 350.72,372.32 L 354.15,363.24 L 355.96,358.45 L 359.62,348.73 L 361.54,343.64 L 365.42,333.34 L 367.43,327.99 L 371.51,317.16 L 373.60,311.57 L 377.84,300.29 L 380.02,294.50 L 384.40,282.82 L 386.64,276.85 L 391.14,264.84 L 393.43,258.72 L 399.95,241.31 L 404.08,230.27 L 406.05,225.03 L 409.90,214.73 L 411.73,209.85 L 415.32,200.26 L 417.02,195.73 L 420.35,186.82 L 421.92,182.62 L 425.00,174.37 L 426.45,170.48 L 429.29,162.87 L 430.63,159.29 L 433.24,152.28 L 434.46,148.99 L 436.84,142.56 L 437.96,139.55 L 440.13,133.67 L 441.14,130.92 L 443.10,125.57 L 444.01,123.08 L 445.79,118.22 L 446.60,115.97 L 448.19,111.58 L 448.91,109.56 L 450.32,105.61 L 450.96,103.80 L 452.20,100.28 L 452.76,98.66 L 453.83,95.53 L 454.32,94.11 L 455.24,91.34 L 455.65,90.08 L 456.44,87.66 L 456.78,86.56 L 457.43,84.45 L 457.71,83.50 L 458.24,81.67 L 458.46,80.85 L 459.23,77.84 L 459.47,76.65 L 459.84,74.49 L 459.90,73.65 L 459.95,72.12 L 459.87,71.52 L 459.67,70.42 L 459.49,69.96 L 458.64,68.25 L 458.11,67.21 L 456.56,64.54 L 455.44,63.00 L 454.82,62.34 L 453.55,61.08 L 452.84,60.56 L 451.35,59.57 L 450.51,59.16 L 448.76,58.41 L 447.77,58.12 L 445.70,57.59 L 444.53,57.39 L 442.10,57.05 L 440.72,56.94 L 437.87,56.76 L 436.26,56.72 L 426.53,56.50 L 419.65,74.69 L 416.86,81.79 L 415.98,83.94 L 415.56,84.93 L 414.74,86.85 L 414.37,87.69 L 413.64,89.32 L 413.31,90.00 L 412.69,91.28 L 412.43,91.78 L 411.95,92.67 L 411.76,92.94 L 411.43,93.39 L 411.33,93.43 L 410.89,93.46 L 410.30,93.46 L 409.87,93.45 L 408.91,93.43 L 408.31,93.41 L 407.02,93.36 L 406.25,93.33 L 404.65,93.26 L 403.74,93.22 L 401.84,93.13 L 400.80,93.07 L 396.36,92.84 L 393.81,92.70 L 388.49,92.41 L 385.58,92.24 L 379.60,91.89 L 376.42,91.70 L 369.97,91.31 L 366.64,91.10 L 359.93,90.69 L 356.54,90.47 L 342.99,89.60 L 336.61,89.18 L 330.32,88.75 L 327.38,88.55 L 321.64,88.15 L 319.04,87.97 L 314.06,87.60 L 311.92,87.44 L 309.84,87.28 L 308.90,87.21 L 307.09,87.06 L 306.30,87.00 L 304.78,86.87 L 304.15,86.81 L 302.96,86.70 L 302.49,86.65 L 301.65,86.56 L 301.36,86.52 L 300.89,86.45 L 300.80,86.42 L 299.44,85.53 L 298.69,84.60 L 298.54,84.11 L 298.55,83.41 L 298.69,82.63 L 298.82,82.09 L 299.11,80.93 L 299.31,80.23 L 299.74,78.75 L 300.00,77.90 L 301.17,74.26 L 301.91,72.15 L 303.46,67.76 L 304.35,65.42 L 310.72,48.50 L 301.11,47.68 L 293.15,47.27 L 290.78,47.26 M 211.36,406.01 L 211.97,406.03 L 212.37,406.05 L 214.23,406.14 L 215.50,406.21 L 218.26,406.36 L 219.93,406.45 L 223.45,406.65 L 225.44,406.77 L 229.58,407.02 L 231.83,407.15 L 236.44,407.43 L 238.88,407.58 L 248.92,408.21 L 254.10,408.54 L 264.48,409.20 L 269.40,409.52 L 274.26,409.84 L 276.55,409.99 L 281.03,410.28 L 283.08,410.42 L 287.04,410.69 L 288.78,410.81 L 292.08,411.04 L 293.43,411.14 L 295.93,411.33 L 296.83,411.40 L 297.66,411.47 L 297.99,411.50 L 298.56,411.55 L 298.75,411.57 L 304.00,412.14 L 304.00,420.00 L 299.25,419.86 L 298.56,419.84 L 297.89,419.80 L 297.47,419.78 L 295.52,419.67 L 294.21,419.59 L 291.37,419.42 L 289.66,419.31 L 286.05,419.08 L 284.00,418.95 L 279.74,418.67 L 277.42,418.52 L 272.64,418.20 L 270.10,418.03 L 264.93,417.68 L 262.23,417.50 L 256.78,417.13 L 254.00,416.94 L 245.81,416.38 L 240.55,416.02 L 238.06,415.85 L 233.18,415.52 L 230.93,415.37 L 226.55,415.08 L 224.59,414.95 L 220.83,414.70 L 219.23,414.59 L 216.21,414.40 L 215.01,414.32 L 212.85,414.19 L 212.13,414.15 L 211.47,414.11 L 211.24,414.10 L 210.84,414.08 L 210.75,414.08 L 209.25,413.93 L 208.61,413.67 L 208.43,413.39 L 208.13,412.73 L 208.07,412.18 L 208.00,410.92 L 208.00,410.00 L 208.07,407.82 L 208.24,406.88 L 208.42,406.61 L 208.87,406.19 L 209.25,406.10 L 210.11,406.00 L 210.75,406.00 M 190.00,408.50 L 189.99,410.30 L 189.93,410.91 L 189.79,411.94 L 189.63,412.24 L 189.26,412.70 L 188.96,412.79 L 188.26,412.87 L 187.75,412.83 L 186.36,412.71 L 185.04,412.60 L 184.25,412.54 L 180.79,412.24 L 179.00,412.08 L 172.50,411.50 L 172.19,407.75 L 171.88,404.00 L 190.00,404.00 M 234.26,370.38 L 236.10,370.41 L 237.17,370.45 L 239.42,370.54 L 240.70,370.60 L 243.39,370.74 L 244.90,370.83 L 248.07,371.01 L 249.84,371.12 L 253.52,371.35 L 255.57,371.48 L 259.80,371.75 L 262.14,371.90 L 276.09,372.79 L 280.54,373.08 L 282.65,373.22 L 286.78,373.49 L 288.68,373.61 L 292.39,373.86 L 294.04,373.97 L 297.19,374.18 L 298.53,374.27 L 301.03,374.44 L 301.99,374.51 L 303.72,374.64 L 304.25,374.68 L 312.00,375.29 L 312.00,383.00 L 305.25,382.87 L 303.21,382.80 L 301.24,382.70 L 299.99,382.64 L 297.31,382.49 L 295.74,382.40 L 292.47,382.21 L 290.64,382.10 L 286.88,381.87 L 284.85,381.75 L 280.71,381.48 L 278.54,381.34 L 269.61,380.76 L 265.00,380.44 L 251.78,379.54 L 247.71,379.27 L 245.83,379.15 L 242.18,378.90 L 240.53,378.80 L 237.38,378.59 L 236.03,378.50 L 233.48,378.34 L 232.46,378.28 L 230.61,378.17 L 229.99,378.13 L 228.94,378.08 L 228.75,378.07 L 227.34,377.93 L 226.71,377.71 L 226.51,377.51 L 226.19,377.03 L 226.11,376.66 L 226.01,375.83 L 226.02,375.25 L 226.04,373.33 L 226.18,372.31 L 226.41,371.93 L 227.01,371.23 L 227.59,371.00 L 228.22,370.78 L 228.63,370.70 L 229.50,370.55 L 230.05,370.49 L 231.21,370.41 L 231.91,370.39 L 233.39,370.37 M 190.74,367.46 L 192.50,367.50 L 193.52,367.54 L 195.65,367.64 L 196.78,367.72 L 205.00,368.29 L 205.00,376.00 L 197.25,375.92 L 194.14,375.85 L 192.22,375.77 L 191.41,375.72 L 189.89,375.60 L 189.35,375.54 L 188.42,375.41 L 188.25,375.34 L 187.79,374.88 L 187.53,374.36 L 187.43,374.01 L 187.08,372.46 L 187.03,371.58 L 187.00,369.81 L 187.12,369.10 L 187.27,368.42 L 187.38,368.17 L 187.62,367.74 L 187.78,367.64 L 188.73,367.50 L 189.92,367.46 M 183.00,298.68 L 183.00,298.74 L 183.16,299.13 L 183.42,299.55 L 183.62,299.84 L 184.59,301.19 L 185.28,302.10 L 186.80,304.04 L 187.69,305.16 L 189.56,307.45 L 190.55,308.65 L 192.57,311.07 L 193.57,312.24 L 195.53,314.53 L 196.43,315.55 L 198.16,317.48 L 198.86,318.23 L 200.15,319.56 L 200.56,319.92 L 204.40,322.79 L 207.39,324.63 L 209.03,325.46 L 212.38,327.07 L 214.11,327.75 L 217.57,329.00 L 219.26,329.46 L 220.86,329.84 L 221.83,330.01 L 223.87,330.34 L 224.96,330.47 L 227.16,330.72 L 228.24,330.80 L 230.35,330.93 L 231.29,330.93 L 233.97,330.98 L 235.36,330.98 L 235.85,330.91 L 236.67,330.71 L 236.84,330.48 L 237.03,329.92 L 236.87,329.45 L 236.38,328.36 L 235.86,327.57 L 235.29,326.73 L 234.93,326.24 L 234.16,325.21 L 233.71,324.61 L 232.74,323.37 L 232.19,322.66 L 231.02,321.17 L 230.35,320.34 L 228.97,318.60 L 228.19,317.63 L 226.59,315.62 L 225.70,314.50 L 215.37,301.50 L 204.93,301.29 L 195.88,300.73 L 193.02,300.41 L 191.81,300.23 L 189.54,299.86 L 188.75,299.67 L 186.52,299.16 L 185.21,298.90 L 184.69,298.82 L 183.75,298.68 L 183.45,298.67 M 247.44,292.71 L 246.26,292.97 L 245.44,293.25 L 243.64,293.90 L 242.45,294.38 L 239.69,295.41 L 237.62,296.11 L 236.56,296.45 L 234.44,297.09 L 233.45,297.36 L 231.54,297.87 L 230.75,298.05 L 228.52,298.60 L 227.21,298.98 L 226.69,299.17 L 225.75,299.52 L 225.45,299.68 L 225.00,299.97 L 225.00,300.07 L 225.11,300.47 L 225.33,300.88 L 225.53,301.19 L 226.00,301.90 L 226.36,302.39 L 227.17,303.49 L 227.73,304.22 L 228.95,305.82 L 229.74,306.84 L 231.45,309.03 L 232.51,310.38 L 234.78,313.27 L 236.16,315.00 L 237.57,316.79 L 238.35,317.77 L 239.93,319.77 L 240.79,320.86 L 248.21,330.22 L 252.08,329.60 L 253.96,329.21 L 255.69,328.78 L 256.72,328.50 L 261.18,327.28 L 263.51,326.59 L 265.81,325.90 L 266.87,325.57 L 268.92,324.93 L 269.77,324.65 L 271.34,324.12 L 271.87,323.92 L 272.74,323.56 L 272.84,323.47 L 272.66,323.12 L 272.32,322.61 L 272.05,322.23 L 271.45,321.39 L 271.06,320.87 L 270.24,319.75 L 269.76,319.10 L 267.65,316.30 L 266.41,314.67 L 263.83,311.29 L 262.47,309.51 L 259.71,305.93 L 258.36,304.21 L 255.72,300.82 L 254.54,299.34 L 253.40,297.90 L 252.88,297.25 L 251.89,296.01 L 251.46,295.49 L 250.66,294.51 L 250.34,294.13 L 249.76,293.45 L 249.56,293.24 L 248.73,292.72 L 247.98,292.62 M 276.34,276.00 L 275.91,276.19 L 275.40,276.49 L 275.07,276.71 L 273.56,277.76 L 272.68,278.42 L 270.92,279.67 L 269.37,280.70 L 268.48,281.28 L 264.68,283.66 L 262.85,284.73 L 256.19,288.61 L 260.85,294.60 L 263.23,297.64 L 265.19,300.15 L 266.27,301.53 L 268.48,304.33 L 269.58,305.74 L 271.77,308.52 L 272.77,309.79 L 274.76,312.26 L 275.69,313.36 L 277.50,315.46 L 278.28,316.29 L 279.72,317.81 L 280.23,318.27 L 280.72,318.69 L 280.89,318.81 L 281.21,319.00 L 281.29,319.00 L 282.37,318.65 L 283.58,318.09 L 284.37,317.69 L 286.06,316.80 L 287.02,316.26 L 288.99,315.14 L 290.02,314.53 L 294.24,312.07 L 296.44,310.76 L 297.24,310.20 L 298.64,309.12 L 299.02,308.58 L 299.59,307.48 L 299.57,306.84 L 299.30,305.48 L 298.85,304.62 L 298.35,303.73 L 298.02,303.23 L 297.30,302.18 L 296.87,301.58 L 295.94,300.33 L 295.39,299.63 L 294.25,298.17 L 293.59,297.34 L 292.23,295.63 L 291.47,294.67 L 289.89,292.67 L 289.02,291.56 L 284.24,285.52 L 282.79,283.70 L 282.13,282.88 L 280.83,281.28 L 280.26,280.57 L 279.16,279.23 L 278.70,278.67 L 277.83,277.62 L 277.49,277.23 L 276.88,276.53 L 276.69,276.32 L 276.37,276.00 M 122.14,256.08 L 122.72,256.14 L 123.43,256.51 L 123.73,256.76 L 124.08,257.63 L 124.49,259.75 L 124.81,261.79 L 125.54,265.63 L 125.93,267.51 L 126.80,271.05 L 127.26,272.78 L 128.28,276.03 L 128.82,277.63 L 130.01,280.63 L 130.63,282.10 L 131.99,284.88 L 132.70,286.25 L 134.25,288.83 L 139.67,295.97 L 144.30,301.12 L 142.34,303.75 L 141.80,304.47 L 140.63,305.71 L 140.36,305.98 L 139.87,306.39 L 139.29,306.74 L 139.14,306.79 L 138.52,306.48 L 138.17,306.27 L 137.24,305.51 L 136.75,305.09 L 135.62,303.99 L 135.05,303.40 L 133.85,302.06 L 132.64,300.66 L 130.38,297.71 L 129.28,296.22 L 127.24,293.11 L 126.25,291.54 L 124.45,288.30 L 123.58,286.66 L 122.03,283.32 L 121.28,281.63 L 119.99,278.21 L 119.38,276.49 L 118.36,273.02 L 117.89,271.28 L 117.16,267.79 L 116.40,262.55 L 115.72,256.00 L 120.81,256.00 M 291.69,262.62 L 282.96,270.95 L 295.14,286.48 L 298.43,290.65 L 299.91,292.50 L 301.35,294.31 L 302.02,295.14 L 303.31,296.74 L 303.88,297.44 L 304.97,298.78 L 305.44,299.34 L 306.30,300.38 L 306.64,300.78 L 307.25,301.48 L 307.44,301.68 L 307.75,302.00 L 307.78,302.00 L 308.14,301.83 L 308.52,301.55 L 308.78,301.33 L 309.98,300.30 L 310.76,299.57 L 312.44,297.98 L 313.38,297.05 L 315.31,295.14 L 316.29,294.14 L 318.24,292.13 L 319.15,291.17 L 320.90,289.30 L 321.61,288.50 L 322.93,287.01 L 323.35,286.48 L 323.72,285.99 L 323.83,285.82 L 324.00,285.53 L 324.00,285.46 L 323.70,284.61 L 323.22,283.73 L 322.87,283.18 L 321.21,280.72 L 320.16,279.38 L 319.22,278.19 L 318.47,277.24 L 318.04,276.69 L 316.18,274.32 L 315.11,272.97 L 310.55,267.18 L 308.37,264.40 L 300.42,254.29 M 264.91,146.47 L 259.79,146.94 L 257.15,147.35 L 251.81,148.31 L 249.07,148.98 L 243.54,150.44 L 240.71,151.37 L 235.01,153.34 L 232.11,154.52 L 219.84,160.36 L 211.93,164.95 L 208.16,167.55 L 200.72,172.97 L 197.22,175.94 L 190.38,182.06 L 187.21,185.34 L 181.07,192.04 L 178.30,195.57 L 172.97,202.74 L 170.65,206.46 L 168.39,210.20 L 167.35,212.09 L 165.34,215.90 L 164.43,217.83 L 162.68,221.69 L 161.91,223.64 L 160.44,227.54 L 159.82,229.50 L 158.94,232.82 L 158.44,235.31 L 158.23,236.66 L 157.50,242.27 L 157.33,245.16 L 157.12,250.90 L 157.23,253.47 L 157.37,255.98 L 157.50,257.09 L 157.79,259.22 L 158.00,260.10 L 160.04,266.63 L 161.83,270.65 L 162.93,272.49 L 165.28,276.06 L 166.66,277.67 L 169.56,280.78 L 171.22,282.16 L 174.66,284.81 L 176.59,285.96 L 180.57,288.13 L 182.76,289.04 L 187.27,290.75 L 189.73,291.42 L 194.76,292.64 L 197.48,293.07 L 199.15,293.29 L 200.12,293.36 L 202.13,293.47 L 203.24,293.49 L 207.89,293.48 L 210.39,293.33 L 215.44,292.95 L 217.87,292.64 L 222.60,291.94 L 224.61,291.48 L 234.12,288.87 L 240.37,286.70 L 243.43,285.42 L 249.52,282.73 L 252.49,281.21 L 258.37,278.04 L 261.22,276.30 L 266.87,272.71 L 269.58,270.77 L 274.94,266.79 L 277.50,264.67 L 282.53,260.36 L 284.91,258.09 L 289.57,253.48 L 291.76,251.09 L 296.01,246.23 L 297.97,243.73 L 301.78,238.67 L 303.50,236.08 L 306.82,230.86 L 308.28,228.21 L 311.06,222.89 L 312.24,220.20 L 314.45,214.81 L 315.33,212.10 L 316.93,206.69 L 317.48,203.99 L 318.42,198.60 L 318.63,195.93 L 318.88,190.62 L 318.72,188.00 L 317.89,181.20 L 316.94,176.94 L 316.27,174.96 L 314.80,171.08 L 313.88,169.29 L 311.93,165.80 L 310.78,164.20 L 308.37,161.11 L 307.00,159.71 L 304.16,157.03 L 302.58,155.85 L 299.33,153.58 L 297.57,152.61 L 293.94,150.78 L 291.99,150.03 L 288.01,148.63 L 285.90,148.10 L 281.59,147.16 L 279.33,146.86 L 274.72,146.37 L 272.32,146.31 L 267.44,146.30 M 314.25,233.68 L 310.37,240.08 L 309.18,241.96 L 308.68,242.72 L 307.76,244.09 L 307.45,244.50 L 305.21,247.50 L 317.16,262.75 L 320.39,266.85 L 321.86,268.67 L 323.29,270.45 L 323.95,271.26 L 325.23,272.83 L 325.81,273.52 L 326.90,274.83 L 327.37,275.38 L 328.25,276.40 L 328.59,276.79 L 329.22,277.48 L 329.42,277.68 L 329.76,277.99 L 329.81,277.99 L 330.20,277.78 L 330.56,277.44 L 330.78,277.19 L 331.77,275.94 L 332.38,275.05 L 333.66,273.12 L 334.36,271.98 L 335.78,269.63 L 336.49,268.39 L 337.91,265.89 L 338.56,264.67 L 339.81,262.29 L 340.32,261.23 L 341.25,259.23 L 341.54,258.46 L 341.80,257.74 L 341.88,257.46 L 342.00,256.94 L 342.00,256.77 L 341.76,256.20 L 341.38,255.55 L 341.09,255.09 L 340.43,254.10 L 340.01,253.50 L 339.12,252.23 L 338.59,251.50 L 337.49,249.98 L 336.88,249.14 L 335.60,247.43 L 334.91,246.51 L 332.00,242.69 L 330.41,240.66 L 318.81,225.86 M 283.56,182.03 L 284.79,182.29 L 285.15,182.52 L 285.72,183.04 L 285.85,183.40 L 286.00,184.18 L 286.00,184.66 L 285.73,185.63 L 285.30,186.88 L 284.97,187.78 L 284.25,189.73 L 283.79,190.93 L 282.82,193.46 L 282.26,194.92 L 281.08,197.93 L 280.43,199.58 L 279.10,202.96 L 278.38,204.75 L 275.44,212.13 L 273.90,215.93 L 270.82,223.54 L 269.34,227.13 L 267.89,230.67 L 267.21,232.32 L 265.87,235.55 L 265.25,237.02 L 264.07,239.83 L 263.55,241.05 L 262.57,243.34 L 262.17,244.25 L 261.43,245.90 L 261.17,246.45 L 260.73,247.35 L 260.63,247.48 L 259.95,247.93 L 259.11,248.26 L 258.48,248.44 L 257.07,248.81 L 256.14,249.02 L 254.13,249.45 L 252.87,249.69 L 250.20,250.18 L 248.60,250.46 L 245.21,251.02 L 243.24,251.34 L 239.10,251.99 L 236.73,252.35 L 231.79,253.10 L 229.00,253.51 L 220.73,254.73 L 216.96,255.29 L 213.26,255.84 L 211.55,256.10 L 208.22,256.60 L 206.72,256.82 L 203.85,257.26 L 202.62,257.45 L 200.30,257.80 L 199.38,257.94 L 197.70,258.20 L 197.12,258.30 L 196.17,258.45 L 196.00,258.48 L 193.71,258.54 L 192.34,258.21 L 191.80,257.88 L 190.80,257.13 L 190.49,256.63 L 190.00,255.56 L 190.00,254.92 L 190.27,253.83 L 190.70,252.51 L 191.02,251.59 L 191.74,249.59 L 192.20,248.37 L 193.17,245.80 L 193.73,244.33 L 194.90,241.30 L 195.55,239.64 L 196.88,236.25 L 197.58,234.46 L 200.52,227.09 L 202.06,223.30 L 205.14,215.73 L 206.61,212.18 L 208.06,208.68 L 208.75,207.04 L 210.09,203.85 L 210.71,202.41 L 211.90,199.63 L 212.42,198.44 L 213.41,196.20 L 213.82,195.31 L 214.56,193.70 L 214.83,193.18 L 215.29,192.32 L 215.40,192.21 L 216.29,191.84 L 217.47,191.52 L 218.34,191.32 L 220.25,190.91 L 221.45,190.67 L 224.03,190.17 L 225.55,189.90 L 228.74,189.33 L 230.54,189.02 L 234.28,188.39 L 236.33,188.06 L 240.56,187.38 L 242.83,187.03 L 247.49,186.32 L 249.96,185.95 L 255.97,185.05 L 259.62,184.52 L 261.27,184.27 L 264.47,183.81 L 265.91,183.61 L 268.70,183.23 L 269.94,183.06 L 272.33,182.75 L 273.39,182.62 L 275.42,182.38 L 276.31,182.29 L 278.01,182.12 L 278.74,182.07 L 280.14,181.97 L 280.73,181.95 L 282.85,181.94 M 217.86,206.74 L 217.54,207.31 L 217.16,208.10 L 216.90,208.67 L 216.33,209.93 L 215.99,210.72 L 215.26,212.40 L 214.84,213.37 L 213.97,215.41 L 213.49,216.54 L 212.51,218.87 L 211.98,220.13 L 209.80,225.40 L 208.64,228.25 L 206.37,233.89 L 205.41,236.38 L 204.49,238.80 L 204.08,239.91 L 203.30,242.03 L 202.97,242.97 L 202.36,244.75 L 202.12,245.49 L 201.68,246.87 L 201.54,247.39 L 201.31,248.31 L 201.27,248.58 L 201.26,249.00 L 201.34,249.00 L 202.39,248.93 L 203.51,248.81 L 204.24,248.72 L 205.83,248.53 L 206.77,248.41 L 208.75,248.14 L 209.86,247.99 L 214.58,247.33 L 217.23,246.94 L 222.65,246.14 L 225.40,245.73 L 230.87,244.89 L 233.41,244.49 L 235.90,244.09 L 237.06,243.91 L 239.30,243.54 L 240.31,243.37 L 242.23,243.05 L 243.04,242.90 L 244.56,242.63 L 245.14,242.52 L 246.18,242.31 L 246.49,242.24 L 246.96,242.11 L 246.96,242.08 L 246.31,241.38 L 245.31,240.50 L 244.58,239.91 L 242.99,238.62 L 242.03,237.88 L 240.02,236.32 L 238.92,235.50 L 235.45,232.88 L 233.54,231.39 L 232.75,230.73 L 231.26,229.44 L 230.64,228.83 L 229.47,227.62 L 228.96,226.99 L 227.98,225.69 L 227.52,224.97 L 226.63,223.45 L 226.17,222.56 L 225.23,220.68 L 224.71,219.56 L 223.62,217.17 L 222.98,215.74 L 221.23,212.01 L 220.15,209.88 L 219.68,209.07 L 218.82,207.61 L 218.50,207.21 L 218.21,206.86 L 218.11,206.78 L 217.92,206.68 M 326.79,194.28 L 326.36,198.41 L 325.96,201.37 L 325.71,202.83 L 325.21,205.72 L 324.94,207.01 L 324.39,209.48 L 324.12,210.43 L 322.17,217.36 L 333.80,232.13 L 335.52,234.30 L 336.32,235.30 L 337.90,237.23 L 338.62,238.11 L 340.03,239.79 L 340.67,240.53 L 341.90,241.94 L 342.44,242.54 L 343.46,243.66 L 343.90,244.10 L 344.70,244.90 L 345.02,245.18 L 345.59,245.65 L 345.78,245.75 L 346.09,245.86 L 346.14,245.77 L 346.51,244.68 L 346.81,243.40 L 346.98,242.55 L 347.33,240.73 L 347.50,239.69 L 347.85,237.53 L 348.01,236.40 L 348.57,230.68 L 348.66,227.04 L 348.55,225.28 L 348.24,221.80 L 347.92,220.09 L 347.18,216.71 L 346.64,215.02 L 345.44,211.66 L 344.67,209.96 L 343.01,206.55 L 342.00,204.80 L 339.84,201.27 L 338.57,199.44 L 335.90,195.73 L 334.37,193.78 L 327.50,185.07 M 123.31,223.54 L 124.18,223.72 L 125.78,224.21 L 126.14,224.34 L 126.70,224.58 L 127.24,224.90 L 127.34,224.99 L 127.41,225.71 L 127.43,226.15 L 127.33,227.43 L 127.27,228.12 L 127.02,229.79 L 126.51,232.54 L 126.31,233.50 L 125.94,235.30 L 125.76,236.17 L 125.46,237.68 L 125.33,238.37 L 125.14,239.41 L 125.02,240.25 L 125.01,240.46 L 124.78,240.73 L 124.25,240.84 L 124.15,240.82 L 123.69,240.75 L 123.43,240.71 L 122.73,240.61 L 121.98,240.50 L 120.12,240.27 L 116.75,239.85 L 117.38,235.28 L 117.55,234.02 L 118.13,230.90 L 118.28,230.13 L 118.60,228.67 L 119.06,226.79 L 119.31,225.85 L 119.72,224.61 L 119.93,224.08 L 120.42,223.52 L 120.69,223.30 L 121.50,223.25 M 273.01,191.30 L 272.33,191.38 L 270.82,191.55 L 269.88,191.66 L 267.88,191.92 L 266.73,192.07 L 264.34,192.39 L 263.03,192.57 L 260.33,192.94 L 258.90,193.14 L 252.98,193.99 L 249.93,194.44 L 243.83,195.34 L 240.96,195.78 L 238.14,196.22 L 236.82,196.42 L 234.26,196.83 L 233.10,197.01 L 230.88,197.38 L 229.93,197.54 L 228.16,197.84 L 227.47,197.97 L 226.22,198.21 L 225.83,198.29 L 225.22,198.45 L 225.18,198.49 L 225.19,198.81 L 225.30,199.24 L 225.40,199.55 L 225.91,201.06 L 226.32,202.12 L 227.24,204.44 L 227.81,205.81 L 229.03,208.67 L 229.72,210.22 L 234.71,221.50 L 245.10,229.67 L 247.91,231.85 L 249.18,232.80 L 251.60,234.60 L 252.58,235.30 L 253.53,235.96 L 253.92,236.23 L 254.67,236.72 L 254.97,236.90 L 255.49,237.21 L 255.66,237.29 L 255.94,237.40 L 255.97,237.36 L 256.33,236.70 L 256.75,235.79 L 257.04,235.14 L 257.67,233.69 L 258.06,232.80 L 258.86,230.91 L 259.31,229.83 L 260.25,227.57 L 260.76,226.34 L 261.81,223.81 L 262.35,222.47 L 264.61,216.94 L 265.75,214.10 L 268.03,208.42 L 269.09,205.76 L 270.13,203.14 L 270.60,201.92 L 271.53,199.54 L 271.95,198.47 L 272.74,196.42 L 273.07,195.55 L 273.68,193.92 L 273.91,193.28 L 274.32,192.15 L 274.43,191.80 L 274.59,191.25 L 274.56,191.23 L 273.93,191.22 M 114.19,20.13 L 118.35,20.86 L 118.81,20.97 L 120.06,21.41 L 120.74,21.66 L 122.38,22.34 L 123.25,22.71 L 125.22,23.60 L 126.24,24.07 L 128.49,25.15 L 130.79,26.26 L 135.94,28.88 L 138.58,30.24 L 144.03,33.16 L 146.76,34.63 L 152.03,37.59 L 154.61,39.05 L 159.22,41.78 L 160.31,42.43 L 162.29,43.66 L 163.23,44.25 L 164.88,45.33 L 165.65,45.85 L 166.90,46.75 L 168.28,47.87 L 169.60,49.10 L 172.08,52.21 L 173.28,53.84 L 175.42,57.56 L 176.43,59.47 L 178.09,63.55 L 179.89,69.80 L 180.12,70.86 L 180.46,73.41 L 180.61,74.74 L 180.82,77.72 L 180.91,79.26 L 180.99,82.55 L 181.01,84.22 L 180.97,87.68 L 180.89,91.15 L 180.37,98.03 L 180.21,99.69 L 179.80,102.84 L 179.06,107.14 L 178.45,110.07 L 176.95,115.90 L 176.16,118.81 L 174.30,124.56 L 173.33,127.42 L 171.15,133.06 L 170.02,135.86 L 167.53,141.35 L 166.25,144.07 L 163.48,149.39 L 162.06,152.02 L 159.04,157.12 L 157.50,159.64 L 154.25,164.50 L 152.60,166.89 L 149.14,171.48 L 147.39,173.73 L 143.76,178.00 L 141.92,180.10 L 138.13,184.03 L 136.22,185.96 L 132.31,189.52 L 130.34,191.25 L 126.32,194.40 L 124.30,195.92 L 120.21,198.64 L 118.15,199.94 L 114.00,202.19 L 111.93,203.25 L 107.75,204.99 L 101.49,207.00 L 100.44,207.27 L 98.56,207.72 L 97.65,207.92 L 96.01,208.25 L 94.41,208.54 L 91.68,208.79 L 90.35,208.85 L 87.78,208.65 L 86.47,208.50 L 83.58,207.88 L 83.08,207.76 L 81.94,207.41 L 81.34,207.21 L 79.91,206.67 L 79.16,206.37 L 77.36,205.58 L 76.41,205.15 L 74.15,204.08 L 72.96,203.51 L 70.15,202.11 L 68.66,201.37 L 65.21,199.61 L 63.39,198.67 L 59.21,196.49 L 52.00,192.71 L 50.04,191.68 L 46.66,189.86 L 45.05,188.99 L 42.32,187.45 L 41.03,186.70 L 38.83,185.35 L 37.80,184.70 L 36.04,183.47 L 35.21,182.87 L 33.79,181.69 L 33.11,181.10 L 31.92,179.90 L 28.73,175.82 L 27.73,174.36 L 26.01,171.18 L 25.19,169.55 L 23.82,166.06 L 23.18,164.28 L 22.15,160.50 L 21.68,158.58 L 20.99,154.55 L 20.69,152.51 L 20.34,148.25 L 20.21,146.10 L 20.19,141.64 L 20.22,139.39 L 20.53,134.77 L 20.73,132.44 L 21.36,127.67 L 21.71,125.27 L 22.67,120.39 L 23.18,117.94 L 24.45,112.98 L 25.12,110.49 L 26.70,105.47 L 27.53,102.96 L 29.41,97.91 L 30.39,95.38 L 32.58,90.34 L 33.71,87.82 L 36.20,82.80 L 37.48,80.30 L 40.25,75.34 L 44.75,68.00 L 47.43,63.87 L 53.18,56.25 L 56.11,52.56 L 62.25,45.91 L 63.80,44.31 L 66.95,41.31 L 68.54,39.84 L 71.74,37.11 L 73.35,35.78 L 76.59,33.33 L 78.21,32.14 L 81.46,29.98 L 83.09,28.94 L 86.34,27.08 L 87.96,26.19 L 91.19,24.65 L 92.80,23.92 L 95.99,22.71 L 97.58,22.15 L 100.72,21.27 L 102.28,20.88 L 105.35,20.35 L 106.87,20.13 L 109.85,19.96 L 111.32,19.92 M 97.40,172.00 L 96.46,172.27 L 95.59,172.69 L 95.07,173.00 L 92.81,174.46 L 91.67,175.40 L 86.89,178.93 L 83.48,181.13 L 81.68,182.13 L 78.04,184.08 L 76.16,184.93 L 72.38,186.57 L 70.46,187.26 L 63.76,189.67 L 73.13,194.51 L 77.01,196.45 L 79.51,197.65 L 80.63,198.16 L 82.76,199.11 L 83.60,199.45 L 85.09,200.02 L 85.50,200.13 L 88.05,200.58 L 89.60,200.60 L 92.86,200.51 L 94.63,200.28 L 98.22,199.71 L 100.01,199.25 L 103.56,198.24 L 105.17,197.59 L 107.77,196.42 L 109.71,195.45 L 110.74,194.90 L 114.96,192.54 L 116.92,191.33 L 118.84,190.13 L 119.68,189.57 L 121.29,188.47 L 121.93,187.99 L 123.09,187.09 L 123.45,186.75 L 124.00,186.14 L 124.00,185.97 L 123.72,185.64 L 123.28,185.29 L 122.94,185.07 L 122.19,184.58 L 121.72,184.29 L 120.71,183.68 L 120.13,183.34 L 117.59,181.90 L 116.11,181.09 L 113.05,179.43 L 111.45,178.59 L 108.24,176.92 L 106.70,176.14 L 103.70,174.65 L 102.40,174.03 L 101.15,173.45 L 100.60,173.20 L 99.55,172.73 L 99.12,172.56 L 98.32,172.24 L 98.03,172.15 L 97.52,172.00 M 298.07,112.01 L 298.86,112.04 L 299.37,112.06 L 300.46,112.11 L 301.11,112.14 L 302.48,112.21 L 303.26,112.25 L 306.64,112.43 L 308.66,112.54 L 312.91,112.79 L 315.31,112.93 L 320.27,113.22 L 322.96,113.39 L 328.46,113.72 L 331.34,113.90 L 343.21,114.65 L 349.28,115.04 L 361.38,115.82 L 367.05,116.20 L 372.62,116.57 L 375.22,116.74 L 380.29,117.09 L 382.58,117.25 L 386.97,117.56 L 388.86,117.70 L 392.40,117.96 L 393.80,118.07 L 395.13,118.17 L 395.69,118.22 L 396.74,118.30 L 397.15,118.34 L 397.89,118.41 L 398.14,118.44 L 398.56,118.49 L 398.64,118.51 L 400.33,119.30 L 401.22,120.12 L 401.38,120.55 L 401.22,121.62 L 400.84,123.04 L 400.53,124.07 L 399.82,126.34 L 399.36,127.75 L 398.36,130.76 L 397.77,132.51 L 396.52,136.15 L 395.81,138.17 L 394.33,142.34 L 393.53,144.59 L 391.87,149.18 L 390.99,151.60 L 389.19,156.51 L 388.24,159.05 L 386.37,164.07 L 385.47,166.47 L 383.70,171.18 L 382.87,173.39 L 381.24,177.69 L 380.49,179.66 L 379.03,183.45 L 378.39,185.12 L 377.16,188.31 L 376.63,189.64 L 375.66,192.11 L 375.28,193.05 L 374.60,194.71 L 374.38,195.20 L 374.19,195.64 L 374.12,195.76 L 374.02,195.95 L 374.00,195.95 L 373.46,195.81 L 372.90,195.62 L 372.55,195.48 L 371.01,194.85 L 370.19,194.48 L 368.57,193.73 L 367.98,193.42 L 367.45,193.13 L 367.28,193.02 L 367.02,192.84 L 367.02,192.80 L 367.28,192.06 L 367.69,190.93 L 368.00,190.08 L 368.70,188.18 L 369.15,186.98 L 370.10,184.40 L 370.66,182.89 L 371.84,179.74 L 372.49,177.97 L 373.85,174.32 L 374.59,172.34 L 376.11,168.28 L 376.91,166.14 L 378.54,161.77 L 379.39,159.50 L 381.87,152.87 L 383.44,148.65 L 384.17,146.67 L 385.60,142.81 L 386.25,141.04 L 387.50,137.63 L 388.05,136.12 L 389.10,133.25 L 389.53,132.05 L 390.34,129.81 L 390.64,128.95 L 391.18,127.43 L 391.33,126.98 L 391.55,126.27 L 391.54,126.25 L 391.26,126.21 L 390.82,126.16 L 390.48,126.13 L 389.72,126.06 L 389.24,126.03 L 388.19,125.94 L 387.56,125.89 L 384.79,125.68 L 383.05,125.56 L 379.34,125.29 L 377.20,125.14 L 372.73,124.83 L 370.27,124.66 L 365.20,124.32 L 362.51,124.14 L 351.36,123.39 L 345.56,123.01 L 333.93,122.25 L 328.40,121.90 L 322.96,121.55 L 320.40,121.39 L 315.39,121.07 L 313.11,120.93 L 308.72,120.66 L 306.81,120.55 L 303.20,120.34 L 301.75,120.26 L 300.36,120.18 L 299.76,120.15 L 298.64,120.09 L 298.18,120.07 L 297.34,120.03 L 297.04,120.02 L 296.51,120.00 L 296.37,120.00 L 294.47,119.92 L 293.68,119.71 L 293.46,119.45 L 293.13,118.82 L 293.07,118.26 L 293.00,116.97 L 293.00,112.00 L 297.25,111.99 M 106.63,28.61 L 101.91,29.52 L 99.42,30.35 L 94.35,32.25 L 91.70,33.58 L 83.83,38.19 L 78.72,41.83 L 76.24,43.91 L 71.35,48.23 L 68.99,50.60 L 64.35,55.51 L 62.14,58.14 L 57.80,63.54 L 55.75,66.39 L 51.74,72.20 L 49.87,75.22 L 46.24,81.35 L 44.57,84.50 L 41.35,90.85 L 39.91,94.08 L 37.14,100.58 L 35.94,103.84 L 33.66,110.39 L 32.72,113.65 L 30.98,120.16 L 30.32,123.37 L 29.15,129.76 L 28.79,132.87 L 28.23,139.04 L 28.20,142.02 L 28.29,147.89 L 28.59,150.68 L 29.38,156.15 L 30.04,158.72 L 31.56,163.71 L 32.60,166.00 L 35.08,170.66 L 36.88,173.24 L 37.90,174.32 L 40.03,176.36 L 41.29,177.24 L 43.93,178.92 L 45.50,179.68 L 47.47,180.60 L 48.33,180.91 L 50.02,181.44 L 50.90,181.59 L 52.72,181.81 L 53.81,181.82 L 56.17,181.79 L 57.69,181.71 L 63.67,180.84 L 67.72,179.75 L 69.77,178.95 L 73.88,177.21 L 75.94,176.10 L 80.07,173.75 L 82.13,172.37 L 86.23,169.46 L 88.26,167.82 L 92.31,164.41 L 94.30,162.52 L 98.25,158.65 L 100.17,156.55 L 103.99,152.26 L 105.84,149.97 L 109.48,145.31 L 111.22,142.86 L 114.66,137.88 L 116.28,135.28 L 119.47,130.02 L 120.96,127.31 L 123.86,121.82 L 125.19,119.01 L 127.77,113.34 L 128.93,110.45 L 131.14,104.65 L 132.11,101.71 L 133.92,95.82 L 134.67,92.86 L 136.06,86.93 L 136.57,83.96 L 137.19,79.55 L 137.49,76.42 L 137.59,74.80 L 137.83,68.19 L 137.74,64.94 L 137.62,61.71 L 137.51,60.16 L 137.26,57.12 L 137.08,55.71 L 136.69,52.97 L 136.45,51.76 L 135.93,49.43 L 135.63,48.45 L 134.34,44.88 L 133.36,42.67 L 132.81,41.65 L 131.68,39.67 L 131.07,38.76 L 129.79,37.01 L 129.10,36.22 L 127.69,34.69 L 126.94,34.02 L 125.39,32.73 L 124.57,32.17 L 122.90,31.12 L 122.01,30.68 L 120.21,29.86 L 119.27,29.54 L 117.35,28.96 L 116.35,28.76 L 114.33,28.43 L 113.27,28.35 L 108.94,28.28 M 127.45,133.22 L 127.28,133.46 L 127.05,133.79 L 126.88,134.04 L 126.08,135.22 L 125.52,136.06 L 124.30,137.89 L 123.58,138.98 L 122.08,141.26 L 121.26,142.50 L 118.51,146.53 L 116.45,149.42 L 115.39,150.86 L 113.27,153.68 L 112.28,154.95 L 110.36,157.37 L 109.56,158.31 L 107.35,160.98 L 106.08,162.56 L 105.58,163.21 L 104.71,164.40 L 104.46,164.78 L 104.09,165.40 L 104.14,165.45 L 104.48,165.66 L 104.95,165.93 L 105.31,166.13 L 106.08,166.57 L 106.57,166.84 L 107.61,167.42 L 108.21,167.75 L 110.85,169.20 L 112.42,170.06 L 115.71,171.85 L 117.50,172.81 L 121.01,174.70 L 122.60,175.55 L 125.63,177.15 L 126.87,177.80 L 128.05,178.41 L 128.56,178.67 L 129.50,179.15 L 129.87,179.33 L 130.53,179.66 L 130.75,179.76 L 131.10,179.91 L 131.15,179.92 L 131.73,179.64 L 132.34,179.13 L 132.73,178.75 L 133.57,177.88 L 134.07,177.33 L 135.11,176.16 L 135.70,175.48 L 138.17,172.50 L 139.55,170.76 L 142.38,167.15 L 143.80,165.25 L 146.65,161.44 L 147.97,159.60 L 150.51,156.01 L 151.55,154.45 L 152.54,152.94 L 152.97,152.27 L 153.75,151.00 L 154.06,150.46 L 154.59,149.47 L 154.75,149.11 L 155.00,148.46 L 155.00,148.28 L 154.70,147.95 L 154.21,147.59 L 153.84,147.34 L 153.02,146.81 L 152.51,146.49 L 151.41,145.82 L 150.78,145.45 L 148.03,143.84 L 146.44,142.94 L 143.15,141.10 L 141.45,140.17 L 138.04,138.32 L 136.43,137.47 L 133.32,135.84 L 132.01,135.18 L 130.76,134.56 L 130.22,134.30 L 129.21,133.83 L 128.81,133.65 L 128.09,133.35 L 127.86,133.28 L 127.49,133.18 M 105.19,62.13 L 107.17,63.84 L 107.63,64.37 L 107.78,64.59 L 108.00,64.99 L 108.00,65.13 L 107.82,65.54 L 107.54,65.99 L 107.32,66.31 L 106.25,67.78 L 105.47,68.77 L 103.76,70.92 L 102.74,72.16 L 100.58,74.75 L 99.39,76.12 L 96.08,80.03 L 94.17,82.34 L 93.42,83.28 L 92.71,84.17 L 92.42,84.55 L 91.88,85.26 L 91.68,85.53 L 91.34,86.02 L 91.25,86.17 L 91.12,86.42 L 91.14,86.44 L 91.85,86.85 L 92.84,87.38 L 93.52,87.74 L 95.02,88.51 L 95.91,88.96 L 97.75,89.90 L 98.75,90.40 L 101.57,91.89 L 103.21,92.84 L 103.87,93.26 L 105.06,94.06 L 105.43,94.37 L 106.00,94.92 L 106.00,95.06 L 105.88,95.69 L 105.70,96.28 L 105.57,96.63 L 104.94,98.15 L 104.54,98.93 L 103.08,101.75 L 94.53,97.32 L 91.15,95.64 L 89.09,94.71 L 88.23,94.35 L 86.65,93.74 L 86.11,93.58 L 85.21,93.37 L 85.08,93.45 L 84.65,93.84 L 84.18,94.32 L 83.86,94.67 L 83.17,95.42 L 82.76,95.88 L 81.90,96.85 L 81.42,97.40 L 79.34,99.79 L 78.18,101.15 L 75.79,103.96 L 74.57,105.40 L 72.15,108.29 L 71.02,109.65 L 68.85,112.28 L 67.96,113.39 L 67.11,114.45 L 66.75,114.91 L 66.07,115.77 L 65.81,116.11 L 65.35,116.73 L 65.21,116.93 L 65.00,117.27 L 65.00,117.31 L 65.30,117.58 L 65.79,117.91 L 66.16,118.14 L 67.00,118.65 L 67.53,118.95 L 68.66,119.61 L 69.33,119.98 L 72.26,121.61 L 74.02,122.56 L 77.72,124.54 L 79.75,125.60 L 85.50,128.62 L 88.90,130.40 L 90.26,131.12 L 91.57,131.81 L 92.11,132.10 L 93.14,132.65 L 93.53,132.86 L 94.24,133.24 L 94.46,133.36 L 94.80,133.55 L 94.82,133.56 L 94.86,133.73 L 94.80,133.94 L 94.65,134.44 L 94.51,134.78 L 93.82,136.38 L 93.32,137.35 L 91.50,140.90 L 73.00,131.20 L 68.09,128.60 L 65.26,127.08 L 64.05,126.41 L 61.77,125.14 L 60.82,124.59 L 59.04,123.54 L 58.31,123.09 L 56.98,122.23 L 56.47,121.86 L 55.55,121.16 L 55.22,120.86 L 54.65,120.29 L 54.48,120.04 L 54.23,119.57 L 54.20,119.37 L 54.29,118.64 L 54.53,118.00 L 54.74,117.59 L 55.23,116.71 L 55.57,116.18 L 56.32,115.06 L 56.80,114.39 L 57.82,113.00 L 58.44,112.20 L 59.75,110.53 L 60.52,109.58 L 62.13,107.61 L 63.05,106.50 L 64.97,104.21 L 66.05,102.94 L 78.21,88.64 L 73.36,86.20 L 69.80,84.36 L 68.92,83.88 L 68.62,83.71 L 68.13,83.42 L 68.07,83.37 L 68.04,82.94 L 68.15,82.41 L 68.26,82.06 L 68.85,80.43 L 69.31,79.47 L 70.98,75.96 L 76.96,78.98 L 79.32,80.15 L 80.73,80.84 L 81.31,81.11 L 82.38,81.61 L 82.73,81.76 L 83.31,82.00 L 83.37,82.00 L 83.64,81.78 L 84.00,81.41 L 84.26,81.14 L 84.84,80.52 L 85.20,80.13 L 85.96,79.28 L 86.40,78.79 L 88.31,76.62 L 89.44,75.31 L 91.80,72.57 L 93.08,71.06 L 102.37,60.13 M 144.75,88.00 L 144.46,88.26 L 144.24,88.66 L 144.13,88.95 L 143.66,90.36 L 143.47,91.25 L 142.82,93.90 L 142.23,96.04 L 141.87,97.25 L 140.28,102.40 L 139.36,105.15 L 137.47,110.66 L 136.55,113.13 L 135.65,115.53 L 135.23,116.59 L 134.41,118.59 L 134.05,119.39 L 131.22,125.70 L 144.36,132.74 L 147.92,134.63 L 149.55,135.48 L 152.67,137.09 L 153.97,137.74 L 155.21,138.36 L 155.74,138.62 L 156.74,139.10 L 157.14,139.29 L 157.87,139.62 L 158.12,139.72 L 158.54,139.88 L 158.61,139.89 L 159.28,139.54 L 159.81,138.92 L 160.12,138.44 L 160.75,137.37 L 161.10,136.69 L 161.81,135.24 L 162.19,134.40 L 163.76,130.74 L 164.57,128.60 L 166.19,124.18 L 166.97,121.87 L 168.47,117.23 L 169.12,115.01 L 170.32,110.70 L 170.74,108.86 L 171.13,107.08 L 171.27,106.30 L 171.50,104.83 L 171.56,104.23 L 171.62,103.13 L 171.58,102.75 L 171.45,102.09 L 171.31,101.95 L 170.85,101.64 L 170.30,101.30 L 169.91,101.08 L 169.06,100.60 L 168.55,100.31 L 167.46,99.71 L 166.84,99.37 L 164.19,97.93 L 162.67,97.12 L 159.55,95.46 L 157.95,94.62 L 154.75,92.94 L 153.24,92.16 L 150.32,90.66 L 149.09,90.05 L 147.92,89.46 L 147.41,89.21 L 146.45,88.74 L 146.08,88.56 L 145.39,88.24 L 145.17,88.15 L 144.80,88.00 M 214.61,55.28 L 214.67,55.33 L 214.86,55.90 L 214.97,56.25 L 215.23,57.30 L 215.38,57.87 L 215.69,59.26 L 216.17,61.59 L 216.32,62.34 L 216.57,64.15 L 216.69,65.09 L 216.87,67.23 L 217.04,69.43 L 217.19,74.57 L 217.24,77.22 L 217.18,82.87 L 217.13,85.71 L 216.88,91.37 L 216.73,94.16 L 216.32,99.34 L 216.21,100.58 L 215.96,102.89 L 215.83,104.01 L 215.54,106.03 L 215.40,106.99 L 215.09,108.65 L 214.93,109.43 L 214.59,110.68 L 214.42,111.24 L 214.06,112.01 L 213.50,112.55 L 213.22,112.60 L 211.91,112.49 L 211.19,112.40 L 209.50,112.07 L 208.67,111.88 L 207.43,111.31 L 207.17,111.16 L 206.84,110.86 L 206.67,110.44 L 207.24,107.15 L 208.03,99.88 L 208.19,98.00 L 208.43,94.08 L 208.54,92.08 L 208.66,87.92 L 208.70,85.81 L 208.70,81.40 L 208.68,79.16 L 208.56,74.51 L 208.48,72.15 L 208.23,67.23 L 207.72,59.58 L 207.67,58.94 L 207.72,58.02 L 207.78,57.60 L 208.12,57.01 L 208.34,56.74 L 209.11,56.33 L 210.86,55.77 L 211.78,55.53 L 213.35,55.26 L 213.69,55.22 L 214.20,55.20 M 143.22,42.00 L 142.90,42.33 L 142.84,42.86 L 142.88,43.28 L 143.02,44.19 L 143.16,44.77 L 143.49,46.02 L 143.72,46.75 L 144.06,48.01 L 144.27,49.07 L 144.38,49.70 L 144.80,52.46 L 145.00,54.12 L 145.36,57.62 L 145.51,59.55 L 145.79,63.48 L 145.88,65.50 L 146.50,79.50 L 159.00,86.17 L 162.38,87.97 L 163.90,88.77 L 166.83,90.30 L 168.02,90.91 L 169.16,91.49 L 169.64,91.74 L 170.55,92.19 L 170.91,92.37 L 171.55,92.68 L 171.76,92.77 L 172.10,92.92 L 172.14,92.92 L 172.59,92.73 L 172.86,92.36 L 172.97,92.08 L 173.39,90.65 L 173.51,89.61 L 173.70,87.34 L 173.70,85.99 L 173.63,83.17 L 173.48,81.67 L 172.88,76.66 L 172.38,73.56 L 172.09,72.13 L 171.46,69.33 L 171.10,68.04 L 170.34,65.53 L 169.90,64.37 L 169.00,62.13 L 168.49,61.10 L 167.43,59.11 L 166.85,58.20 L 165.63,56.44 L 164.97,55.64 L 163.59,54.09 L 162.84,53.39 L 161.13,52.02 L 159.58,50.92 L 158.66,50.32 L 154.66,47.78 L 152.54,46.54 L 150.43,45.34 L 149.43,44.79 L 147.50,43.76 L 146.66,43.35 L 145.09,42.60 L 144.50,42.36 L 143.47,42.00 M 322.27,49.21 L 322.15,49.22 L 320.12,49.61 L 319.58,49.93 L 319.33,50.19 L 318.81,50.81 L 318.54,51.27 L 317.97,52.30 L 317.65,53.01 L 316.97,54.56 L 316.56,55.58 L 315.70,57.78 L 315.18,59.16 L 314.06,62.11 L 313.39,63.91 L 311.33,69.54 L 310.16,72.87 L 309.71,74.22 L 309.29,75.51 L 309.11,76.05 L 308.80,77.07 L 308.69,77.46 L 308.50,78.17 L 308.46,78.39 L 308.41,78.74 L 308.44,78.78 L 308.70,78.84 L 309.09,78.89 L 309.38,78.92 L 310.80,79.07 L 311.88,79.17 L 314.26,79.38 L 315.78,79.51 L 319.00,79.77 L 320.90,79.91 L 324.86,80.22 L 327.07,80.38 L 331.65,80.72 L 334.13,80.90 L 339.21,81.26 L 341.89,81.44 L 347.36,81.82 L 350.20,82.01 L 361.52,82.75 L 366.86,83.08 L 372.12,83.39 L 374.60,83.54 L 379.46,83.81 L 381.69,83.93 L 386.01,84.16 L 387.92,84.25 L 391.56,84.42 L 393.08,84.48 L 395.91,84.59 L 396.97,84.62 L 397.98,84.64 L 398.39,84.65 L 399.13,84.65 L 399.41,84.65 L 407.31,84.50 L 412.70,70.12 L 414.76,64.51 L 415.93,61.19 L 416.38,59.85 L 416.80,58.57 L 416.98,58.03 L 417.29,57.02 L 417.40,56.63 L 417.60,55.93 L 417.64,55.71 L 417.70,55.36 L 417.67,55.34 L 417.35,55.26 L 416.89,55.20 L 416.54,55.16 L 415.76,55.08 L 415.26,55.03 L 414.19,54.94 L 413.55,54.88 L 410.73,54.65 L 408.96,54.52 L 405.20,54.23 L 403.03,54.08 L 398.51,53.75 L 396.03,53.58 L 390.92,53.23 L 388.20,53.05 L 376.97,52.30 L 371.14,51.93 L 359.46,51.19 L 353.92,50.85 L 348.47,50.52 L 345.91,50.37 L 340.91,50.08 L 338.63,49.95 L 334.25,49.71 L 332.36,49.61 L 328.78,49.43 L 327.35,49.37 L 325.98,49.31 L 325.39,49.28 L 324.30,49.24 L 323.86,49.23 L 323.05,49.21 L 322.76,49.21 M 194.42,19.90 L 195.06,20.12 L 195.39,20.26 L 196.14,20.75 L 196.53,21.03 L 197.42,21.79 L 198.94,23.25 L 199.40,23.71 L 200.42,24.86 L 200.94,25.47 L 202.04,26.85 L 203.15,28.27 L 205.32,31.36 L 205.83,32.12 L 206.76,33.56 L 207.20,34.26 L 207.92,35.52 L 208.25,36.11 L 208.70,37.07 L 208.99,38.06 L 208.99,38.14 L 208.71,38.42 L 208.54,38.57 L 207.96,38.96 L 205.46,40.32 L 201.91,42.01 L 200.21,38.88 L 199.97,38.45 L 199.20,37.25 L 198.78,36.60 L 197.74,35.10 L 194.21,30.39 L 193.34,29.32 L 192.12,27.66 L 191.59,26.90 L 190.96,25.73 L 190.72,25.19 L 190.60,24.33 L 190.90,23.18 L 191.20,22.63 L 191.74,21.74 L 192.01,21.33 L 192.52,20.72 L 192.78,20.44 L 193.31,20.10 L 193.57,19.97 L 194.13,19.90 Z" fill="rgba(43,42,87,1)"/>
<path d="M 150.82,451.24 L 151.08,451.24 L 151.93,451.27 L 152.42,451.29 L 153.72,451.35 L 154.43,451.39 L 156.15,451.48 L 157.06,451.52 L 159.17,451.64 L 160.28,451.70 L 162.76,451.84 L 164.05,451.91 L 166.88,452.08 L 168.33,452.17 L 171.48,452.35 L 173.10,452.45 L 176.55,452.66 L 178.30,452.76 L 182.02,452.99 L 185.81,453.22 L 194.09,453.74 L 198.34,454.01 L 207.39,454.58 L 221.64,455.50 L 224.10,455.66 L 228.82,455.97 L 231.15,456.12 L 235.59,456.41 L 239.97,456.69 L 247.95,457.20 L 251.82,457.44 L 258.82,457.88 L 262.20,458.09 L 268.29,458.46 L 271.23,458.64 L 276.49,458.94 L 279.02,459.08 L 283.52,459.32 L 285.67,459.43 L 289.48,459.61 L 291.30,459.69 L 294.48,459.80 L 296.00,459.86 L 298.63,459.91 L 299.88,459.94 L 302.04,459.94 L 303.06,459.94 L 304.81,459.89 L 305.64,459.86 L 307.06,459.76 L 308.40,459.65 L 310.40,459.29 L 312.91,458.56 L 314.12,458.12 L 316.06,457.52 L 316.48,457.40 L 317.06,457.26 L 317.47,457.24 L 317.48,457.26 L 317.69,457.53 L 317.82,457.71 L 318.26,458.28 L 318.51,458.59 L 319.15,459.41 L 319.49,459.86 L 320.31,460.90 L 321.17,462.00 L 323.30,464.72 L 326.92,469.34 L 327.74,470.39 L 329.20,472.28 L 329.89,473.19 L 331.09,474.80 L 331.66,475.57 L 332.62,476.92 L 333.07,477.57 L 333.79,478.67 L 334.12,479.19 L 334.61,480.05 L 334.83,480.46 L 335.11,481.10 L 335.22,481.40 L 335.28,481.83 L 335.14,482.26 L 334.90,482.50 L 333.80,482.88 L 333.14,483.06 L 331.11,483.29 L 330.53,483.34 L 329.19,483.41 L 328.49,483.45 L 326.86,483.48 L 326.02,483.49 L 324.10,483.49 L 323.10,483.48 L 320.87,483.44 L 319.72,483.42 L 317.16,483.34 L 315.84,483.30 L 312.94,483.18 L 311.45,483.11 L 308.18,482.96 L 306.51,482.87 L 302.87,482.68 L 301.00,482.58 L 296.96,482.34 L 294.90,482.22 L 290.45,481.94 L 288.18,481.80 L 283.31,481.48 L 280.81,481.32 L 275.50,480.96 L 272.54,480.76 L 266.28,480.34 L 263.10,480.12 L 256.54,479.68 L 249.94,479.24 L 236.68,478.35 L 233.43,478.13 L 227.16,477.71 L 224.08,477.50 L 218.30,477.11 L 215.49,476.93 L 210.40,476.59 L 203.75,476.14 L 201.53,476.00 L 197.50,475.72 L 195.55,475.59 L 192.00,475.33 L 190.29,475.20 L 187.19,474.94 L 185.70,474.81 L 183.00,474.54 L 181.70,474.40 L 179.37,474.10 L 178.24,473.94 L 176.22,473.60 L 174.27,473.24 L 171.12,472.32 L 169.64,471.81 L 167.18,470.52 L 166.00,469.81 L 163.86,468.02 L 162.80,467.05 L 160.64,464.64 L 156.99,460.21 L 156.04,459.02 L 154.33,456.84 L 153.52,455.79 L 152.20,454.03 L 151.61,453.21 L 150.83,452.06 L 150.67,451.83 L 150.49,451.50 L 150.42,451.25 L 150.43,451.24 M 474.18,87.12 L 475.23,88.50 L 476.99,90.88 L 477.81,92.01 L 479.17,93.98 L 479.80,94.92 L 480.80,96.61 L 481.26,97.42 L 481.96,98.94 L 482.60,100.45 L 483.17,103.47 L 483.28,104.27 L 483.38,106.02 L 483.42,109.00 L 483.41,109.93 L 483.26,111.86 L 483.18,112.41 L 482.92,113.73 L 482.77,114.45 L 482.29,116.26 L 482.02,117.24 L 481.27,119.69 L 480.85,121.02 L 479.76,124.30 L 479.47,125.19 L 478.80,127.13 L 478.45,128.14 L 477.68,130.35 L 477.28,131.50 L 476.39,134.00 L 475.93,135.29 L 474.92,138.11 L 474.40,139.55 L 473.26,142.70 L 472.67,144.32 L 471.39,147.82 L 470.73,149.62 L 469.31,153.50 L 468.58,155.49 L 467.00,159.77 L 466.19,161.96 L 464.45,166.66 L 463.55,169.06 L 461.64,174.20 L 460.67,176.83 L 458.58,182.44 L 457.51,185.30 L 455.24,191.40 L 454.08,194.51 L 451.61,201.11 L 450.35,204.47 L 447.68,211.61 L 446.32,215.24 L 443.44,222.93 L 441.98,226.84 L 438.88,235.10 L 437.31,239.30 L 433.99,248.16 L 432.30,252.66 L 428.74,262.14 L 426.94,266.95 L 423.14,277.07 L 417.17,292.98 L 415.16,298.35 L 411.32,308.60 L 409.42,313.65 L 405.80,323.30 L 404.01,328.05 L 400.61,337.12 L 398.93,341.58 L 395.74,350.07 L 394.17,354.25 L 391.18,362.20 L 389.71,366.11 L 386.92,373.52 L 385.54,377.17 L 382.94,384.07 L 381.66,387.46 L 379.24,393.87 L 378.05,397.01 L 375.80,402.95 L 374.69,405.85 L 372.61,411.33 L 371.59,414.01 L 369.67,419.05 L 368.73,421.52 L 366.95,426.14 L 366.09,428.40 L 364.46,432.61 L 363.67,434.67 L 362.18,438.51 L 361.45,440.38 L 360.09,443.85 L 359.43,445.54 L 358.19,448.66 L 357.59,450.18 L 356.47,452.97 L 355.92,454.33 L 354.91,456.82 L 354.42,458.02 L 353.51,460.22 L 353.07,461.28 L 352.25,463.21 L 351.45,465.06 L 350.11,468.04 L 349.48,469.42 L 348.42,471.55 L 347.92,472.53 L 347.07,473.96 L 346.68,474.60 L 345.99,475.47 L 345.67,475.86 L 345.09,476.33 L 344.28,476.74 L 344.13,476.79 L 343.43,476.35 L 343.02,476.05 L 341.92,475.00 L 341.33,474.42 L 339.98,472.92 L 339.28,472.12 L 337.81,470.30 L 337.07,469.37 L 335.39,467.24 L 334.53,466.15 L 332.78,463.92 L 331.91,462.81 L 330.28,460.74 L 328.22,458.12 L 323.99,452.73 L 327.88,448.51 L 328.95,447.35 L 330.96,444.92 L 331.41,444.35 L 332.14,443.36 L 332.88,442.23 L 332.89,442.20 L 333.02,441.88 L 333.10,441.68 L 333.35,441.04 L 333.49,440.68 L 333.86,439.72 L 334.06,439.20 L 334.54,437.93 L 334.80,437.26 L 335.39,435.70 L 335.71,434.88 L 336.41,433.03 L 336.77,432.07 L 337.58,429.94 L 337.99,428.85 L 338.89,426.46 L 339.82,424.00 L 341.95,418.35 L 343.07,415.40 L 345.54,408.82 L 346.82,405.43 L 349.61,398.01 L 351.04,394.21 L 354.11,386.05 L 355.68,381.88 L 359.00,373.05 L 360.68,368.56 L 364.22,359.15 L 366.01,354.38 L 369.73,344.48 L 371.61,339.47 L 375.48,329.15 L 377.43,323.95 L 381.43,313.31 L 383.43,307.96 L 387.52,297.07 L 391.61,286.14 L 399.94,263.92 L 404.11,252.81 L 412.38,230.73 L 414.43,225.25 L 418.48,214.43 L 420.50,209.05 L 424.45,198.51 L 426.41,193.27 L 430.22,183.08 L 432.11,178.03 L 435.76,168.27 L 437.56,163.46 L 441.01,154.22 L 442.71,149.68 L 445.94,141.05 L 447.52,136.82 L 450.48,128.88 L 451.93,125.01 L 454.60,117.85 L 455.89,114.38 L 458.24,108.08 L 459.37,105.05 L 461.36,99.70 L 461.83,98.43 L 462.71,96.07 L 463.13,94.93 L 463.91,92.84 L 464.28,91.83 L 464.96,90.02 L 465.28,89.15 L 465.84,87.62 L 466.11,86.89 L 466.56,85.67 L 466.77,85.09 L 467.11,84.17 L 467.26,83.75 L 467.48,83.15 L 467.66,82.62 L 468.59,79.74 M 323.05,49.21 L 323.86,49.23 L 324.30,49.24 L 325.39,49.28 L 325.98,49.31 L 327.35,49.37 L 328.78,49.43 L 332.36,49.61 L 334.25,49.71 L 338.63,49.95 L 340.91,50.08 L 345.91,50.37 L 348.47,50.52 L 353.92,50.85 L 359.46,51.19 L 371.14,51.93 L 376.97,52.30 L 388.20,53.05 L 390.92,53.23 L 396.03,53.58 L 398.51,53.75 L 403.03,54.08 L 405.20,54.23 L 408.96,54.52 L 410.73,54.65 L 413.55,54.88 L 414.19,54.94 L 415.26,55.03 L 415.76,55.08 L 416.54,55.16 L 416.89,55.20 L 417.35,55.26 L 417.67,55.34 L 417.70,55.36 L 417.64,55.71 L 417.60,55.93 L 417.40,56.63 L 417.29,57.02 L 416.98,58.03 L 416.80,58.57 L 416.38,59.85 L 415.93,61.19 L 414.76,64.51 L 412.70,70.12 L 407.31,84.50 L 399.41,84.65 L 399.13,84.65 L 398.39,84.65 L 397.98,84.64 L 396.97,84.62 L 395.91,84.59 L 393.08,84.48 L 391.56,84.42 L 387.92,84.25 L 386.01,84.16 L 381.69,83.93 L 379.46,83.81 L 374.60,83.54 L 372.12,83.39 L 366.86,83.08 L 361.52,82.75 L 350.20,82.01 L 347.36,81.82 L 341.89,81.44 L 339.21,81.26 L 334.13,80.90 L 331.65,80.72 L 327.07,80.38 L 324.86,80.22 L 320.90,79.91 L 319.00,79.77 L 315.78,79.51 L 314.26,79.38 L 311.88,79.17 L 310.80,79.07 L 309.38,78.92 L 309.09,78.89 L 308.70,78.84 L 308.44,78.78 L 308.41,78.74 L 308.46,78.39 L 308.50,78.17 L 308.69,77.46 L 308.80,77.07 L 309.11,76.05 L 309.29,75.51 L 309.71,74.22 L 310.16,72.87 L 311.33,69.54 L 313.39,63.91 L 314.06,62.11 L 315.18,59.16 L 315.70,57.78 L 316.56,55.58 L 316.97,54.56 L 317.65,53.01 L 317.97,52.30 L 318.54,51.27 L 318.81,50.81 L 319.33,50.19 L 319.58,49.93 L 320.12,49.61 L 322.15,49.22 L 322.27,49.21 L 322.76,49.21 Z" fill="rgba(97,94,237,1)"/>
<path d="M 293.15,47.27 L 301.11,47.68 L 310.72,48.50 L 304.35,65.42 L 303.46,67.76 L 301.91,72.15 L 301.17,74.26 L 300.00,77.90 L 299.74,78.75 L 299.31,80.23 L 299.11,80.93 L 298.82,82.09 L 298.69,82.63 L 298.55,83.41 L 298.54,84.11 L 298.69,84.60 L 299.44,85.53 L 300.80,86.42 L 300.89,86.45 L 301.36,86.52 L 301.65,86.56 L 302.49,86.65 L 302.96,86.70 L 304.15,86.81 L 304.78,86.87 L 306.30,87.00 L 307.09,87.06 L 308.90,87.21 L 309.84,87.28 L 311.92,87.44 L 314.06,87.60 L 319.04,87.97 L 321.64,88.15 L 327.38,88.55 L 330.32,88.75 L 336.61,89.18 L 342.99,89.60 L 356.54,90.47 L 359.93,90.69 L 366.64,91.10 L 369.97,91.31 L 376.42,91.70 L 379.60,91.89 L 385.58,92.24 L 388.49,92.41 L 393.81,92.70 L 396.36,92.84 L 400.80,93.07 L 401.84,93.13 L 403.74,93.22 L 404.65,93.26 L 406.25,93.33 L 407.02,93.36 L 408.31,93.41 L 408.91,93.43 L 409.87,93.45 L 410.30,93.46 L 410.89,93.46 L 411.33,93.43 L 411.43,93.39 L 411.76,92.94 L 411.95,92.67 L 412.43,91.78 L 412.69,91.28 L 413.31,90.00 L 413.64,89.32 L 414.37,87.69 L 414.74,86.85 L 415.56,84.93 L 415.98,83.94 L 416.86,81.79 L 419.65,74.69 L 426.53,56.50 L 436.26,56.72 L 437.87,56.76 L 440.72,56.94 L 442.10,57.05 L 444.53,57.39 L 445.70,57.59 L 447.77,58.12 L 448.76,58.41 L 450.51,59.16 L 451.35,59.57 L 452.84,60.56 L 453.55,61.08 L 454.82,62.34 L 455.44,63.00 L 456.56,64.54 L 458.11,67.21 L 458.64,68.25 L 459.49,69.96 L 459.67,70.42 L 459.87,71.52 L 459.95,72.12 L 459.90,73.65 L 459.84,74.49 L 459.47,76.65 L 459.23,77.84 L 458.46,80.85 L 458.24,81.67 L 457.71,83.50 L 457.43,84.45 L 456.78,86.56 L 456.44,87.66 L 455.65,90.08 L 455.24,91.34 L 454.32,94.11 L 453.83,95.53 L 452.76,98.66 L 452.20,100.28 L 450.96,103.80 L 450.32,105.61 L 448.91,109.56 L 448.19,111.58 L 446.60,115.97 L 445.79,118.22 L 444.01,123.08 L 443.10,125.57 L 441.14,130.92 L 440.13,133.67 L 437.96,139.55 L 436.84,142.56 L 434.46,148.99 L 433.24,152.28 L 430.63,159.29 L 429.29,162.87 L 426.45,170.48 L 425.00,174.37 L 421.92,182.62 L 420.35,186.82 L 417.02,195.73 L 415.32,200.26 L 411.73,209.85 L 409.90,214.73 L 406.05,225.03 L 404.08,230.27 L 399.95,241.31 L 393.43,258.72 L 391.14,264.84 L 386.64,276.85 L 384.40,282.82 L 380.02,294.50 L 377.84,300.29 L 373.60,311.57 L 371.51,317.16 L 367.43,327.99 L 365.42,333.34 L 361.54,343.64 L 359.62,348.73 L 355.96,358.45 L 354.15,363.24 L 350.72,372.32 L 349.04,376.78 L 345.87,385.16 L 344.32,389.25 L 341.43,396.87 L 340.02,400.57 L 337.45,407.35 L 336.20,410.64 L 333.95,416.53 L 332.87,419.36 L 330.97,424.30 L 330.52,425.48 L 329.69,427.64 L 329.29,428.68 L 328.56,430.58 L 328.20,431.50 L 327.57,433.13 L 327.26,433.91 L 326.73,435.27 L 326.48,435.91 L 326.05,436.98 L 325.85,437.49 L 325.53,438.27 L 325.39,438.62 L 325.18,439.11 L 325.00,439.50 L 323.94,441.21 L 321.19,444.24 L 319.72,445.68 L 316.31,448.08 L 314.53,449.18 L 310.65,450.82 L 304.50,452.29 L 304.36,452.31 L 303.80,452.32 L 303.47,452.33 L 302.54,452.32 L 302.04,452.31 L 300.76,452.27 L 300.09,452.25 L 298.49,452.19 L 297.65,452.16 L 295.75,452.07 L 294.77,452.03 L 292.58,451.92 L 290.34,451.81 L 285.08,451.53 L 282.34,451.39 L 276.22,451.04 L 273.07,450.85 L 266.25,450.44 L 262.78,450.23 L 255.43,449.76 L 251.71,449.53 L 244.00,449.02 L 236.23,448.50 L 220.64,447.46 L 216.81,447.21 L 209.38,446.71 L 205.73,446.47 L 198.81,446.01 L 195.43,445.79 L 189.23,445.38 L 186.24,445.18 L 180.95,444.83 L 179.69,444.75 L 177.39,444.60 L 176.27,444.52 L 174.27,444.39 L 173.31,444.33 L 171.63,444.22 L 169.50,444.08 L 166.88,443.91 L 162.43,443.60 L 160.33,443.44 L 156.80,443.12 L 155.13,442.96 L 152.36,442.61 L 151.06,442.43 L 148.91,442.01 L 147.90,441.79 L 146.21,441.28 L 145.41,441.01 L 144.05,440.37 L 140.44,437.81 L 139.22,436.74 L 137.38,434.70 L 136.55,433.67 L 135.40,431.52 L 134.89,430.41 L 134.32,427.93 L 134.00,423.57 L 134.00,422.97 L 134.16,421.53 L 134.28,420.74 L 134.75,418.70 L 134.89,418.14 L 135.24,416.85 L 135.44,416.18 L 135.90,414.66 L 136.15,413.86 L 136.73,412.05 L 137.04,411.11 L 137.76,408.98 L 138.14,407.88 L 139.00,405.40 L 139.45,404.11 L 140.48,401.25 L 141.01,399.77 L 142.20,396.48 L 142.82,394.78 L 144.19,391.04 L 144.90,389.11 L 146.46,384.88 L 147.27,382.70 L 149.04,377.94 L 149.95,375.49 L 151.94,370.17 L 155.18,361.52 L 156.63,357.63 L 159.45,350.16 L 160.83,346.49 L 163.45,339.57 L 164.73,336.19 L 167.10,329.97 L 168.25,326.97 L 170.31,321.60 L 170.80,320.32 L 171.72,317.95 L 172.17,316.79 L 172.99,314.69 L 173.38,313.67 L 174.10,311.85 L 174.44,310.97 L 175.04,309.46 L 175.33,308.74 L 175.81,307.55 L 176.04,307.00 L 176.39,306.15 L 176.55,305.78 L 176.77,305.29 L 176.94,305.00 L 177.02,305.00 L 177.63,305.59 L 177.99,305.97 L 179.07,307.19 L 179.65,307.86 L 181.05,309.55 L 183.36,312.44 L 185.28,314.90 L 189.07,319.26 L 190.95,321.34 L 194.60,324.91 L 196.41,326.59 L 199.86,329.31 L 204.77,332.39 L 207.00,333.51 L 211.73,335.36 L 214.13,336.21 L 219.18,337.50 L 221.74,338.07 L 227.06,338.81 L 229.75,339.10 L 235.31,339.28 L 238.11,339.30 L 243.85,338.93 L 246.73,338.67 L 252.61,337.74 L 255.57,337.21 L 261.54,335.72 L 270.56,332.87 L 273.45,331.82 L 279.11,329.42 L 281.92,328.18 L 287.41,325.40 L 290.13,323.97 L 295.42,320.85 L 298.04,319.24 L 303.11,315.79 L 305.61,314.03 L 310.43,310.29 L 312.80,308.38 L 317.35,304.37 L 319.59,302.34 L 323.84,298.09 L 325.93,295.94 L 329.86,291.48 L 331.78,289.23 L 335.37,284.59 L 337.11,282.25 L 340.33,277.46 L 341.89,275.05 L 344.72,270.14 L 346.08,267.67 L 348.48,262.66 L 349.63,260.14 L 351.60,255.06 L 352.52,252.52 L 354.02,247.40 L 354.71,244.84 L 355.72,239.72 L 356.66,232.04 L 356.83,229.56 L 356.60,224.25 L 356.39,221.58 L 355.46,216.25 L 354.91,213.62 L 353.37,208.73 L 352.96,207.56 L 352.03,205.38 L 350.50,202.41 L 350.24,201.96 L 349.41,200.70 L 348.95,200.02 L 347.76,198.35 L 347.13,197.47 L 345.65,195.46 L 344.87,194.41 L 343.14,192.11 L 341.35,189.75 L 337.24,184.46 L 335.13,181.75 L 330.67,176.14 L 328.44,173.35 L 324.04,167.94 L 322.97,166.62 L 320.90,164.12 L 319.88,162.89 L 317.97,160.61 L 317.04,159.50 L 315.33,157.51 L 314.51,156.55 L 313.06,154.91 L 312.37,154.14 L 311.23,152.92 L 309.92,151.62 L 308.13,150.01 L 304.18,147.23 L 302.14,145.91 L 297.71,143.70 L 295.44,142.67 L 290.57,141.04 L 288.09,140.29 L 282.82,139.25 L 280.15,138.80 L 274.53,138.34 L 271.68,138.19 L 265.75,138.34 L 262.75,138.48 L 256.56,139.24 L 247.00,141.05 L 245.75,141.35 L 243.43,141.86 L 242.32,142.10 L 240.45,142.47 L 239.59,142.63 L 238.38,142.82 L 237.52,142.85 L 237.50,142.82 L 237.53,142.54 L 237.57,142.36 L 237.72,141.78 L 237.82,141.46 L 238.08,140.61 L 238.22,140.16 L 238.59,139.06 L 238.98,137.90 L 240.03,134.92 L 240.60,133.33 L 241.96,129.59 L 242.68,127.64 L 244.29,123.30 L 245.12,121.07 L 246.92,116.29 L 248.76,111.43 L 252.75,101.03 L 254.76,95.83 L 258.73,85.67 L 259.70,83.20 L 261.55,78.52 L 262.46,76.24 L 264.15,72.05 L 264.97,70.03 L 266.43,66.48 L 267.12,64.79 L 268.29,62.04 L 268.56,61.41 L 269.04,60.32 L 269.27,59.80 L 269.66,58.97 L 269.84,58.58 L 270.13,58.01 L 270.44,57.49 L 270.85,56.95 L 271.89,55.86 L 272.45,55.31 L 273.73,54.22 L 275.06,53.14 L 278.17,51.16 L 279.76,50.22 L 283.01,48.75 L 283.81,48.43 L 285.35,47.94 L 287.50,47.45 L 288.05,47.37 L 289.81,47.29 L 290.78,47.26 M 210.11,406.00 L 209.25,406.10 L 208.87,406.19 L 208.42,406.61 L 208.24,406.88 L 208.07,407.82 L 208.00,410.00 L 208.00,410.92 L 208.07,412.18 L 208.13,412.73 L 208.43,413.39 L 208.61,413.67 L 209.25,413.93 L 210.75,414.08 L 210.84,414.08 L 211.24,414.10 L 211.47,414.11 L 212.13,414.15 L 212.85,414.19 L 215.01,414.32 L 216.21,414.40 L 219.23,414.59 L 220.83,414.70 L 224.59,414.95 L 226.55,415.08 L 230.93,415.37 L 233.18,415.52 L 238.06,415.85 L 240.55,416.02 L 245.81,416.38 L 254.00,416.94 L 256.78,417.13 L 262.23,417.50 L 264.93,417.68 L 270.10,418.03 L 272.64,418.20 L 277.42,418.52 L 279.74,418.67 L 284.00,418.95 L 286.05,419.08 L 289.66,419.31 L 291.37,419.42 L 294.21,419.59 L 295.52,419.67 L 297.47,419.78 L 297.89,419.80 L 298.56,419.84 L 299.25,419.86 L 304.00,420.00 L 304.00,412.14 L 298.75,411.57 L 298.56,411.55 L 297.99,411.50 L 297.66,411.47 L 296.83,411.40 L 295.93,411.33 L 293.43,411.14 L 292.08,411.04 L 288.78,410.81 L 287.04,410.69 L 283.08,410.42 L 281.03,410.28 L 276.55,409.99 L 274.26,409.84 L 269.40,409.52 L 264.48,409.20 L 254.10,408.54 L 248.92,408.21 L 238.88,407.58 L 236.44,407.43 L 231.83,407.15 L 229.58,407.02 L 225.44,406.77 L 223.45,406.65 L 219.93,406.45 L 218.26,406.36 L 215.50,406.21 L 214.23,406.14 L 212.37,406.05 L 211.97,406.03 L 211.36,406.01 L 210.75,406.00 M 171.88,404.00 L 172.19,407.75 L 172.50,411.50 L 179.00,412.08 L 180.79,412.24 L 184.25,412.54 L 185.04,412.60 L 186.36,412.71 L 187.75,412.83 L 188.26,412.87 L 188.96,412.79 L 189.26,412.70 L 189.63,412.24 L 189.79,411.94 L 189.93,410.91 L 189.99,410.30 L 190.00,408.50 L 190.00,404.00 M 231.91,370.39 L 231.21,370.41 L 230.05,370.49 L 229.50,370.55 L 228.63,370.70 L 228.22,370.78 L 227.59,371.00 L 227.01,371.23 L 226.41,371.93 L 226.18,372.31 L 226.04,373.33 L 226.02,375.25 L 226.01,375.83 L 226.11,376.66 L 226.19,377.03 L 226.51,377.51 L 226.71,377.71 L 227.34,377.93 L 228.75,378.07 L 228.94,378.08 L 229.99,378.13 L 230.61,378.17 L 232.46,378.28 L 233.48,378.34 L 236.03,378.50 L 237.38,378.59 L 240.53,378.80 L 242.18,378.90 L 245.83,379.15 L 247.71,379.27 L 251.78,379.54 L 265.00,380.44 L 269.61,380.76 L 278.54,381.34 L 280.71,381.48 L 284.85,381.75 L 286.88,381.87 L 290.64,382.10 L 292.47,382.21 L 295.74,382.40 L 297.31,382.49 L 299.99,382.64 L 301.24,382.70 L 303.21,382.80 L 305.25,382.87 L 312.00,383.00 L 312.00,375.29 L 304.25,374.68 L 303.72,374.64 L 301.99,374.51 L 301.03,374.44 L 298.53,374.27 L 297.19,374.18 L 294.04,373.97 L 292.39,373.86 L 288.68,373.61 L 286.78,373.49 L 282.65,373.22 L 280.54,373.08 L 276.09,372.79 L 262.14,371.90 L 259.80,371.75 L 255.57,371.48 L 253.52,371.35 L 249.84,371.12 L 248.07,371.01 L 244.90,370.83 L 243.39,370.74 L 240.70,370.60 L 239.42,370.54 L 237.17,370.45 L 236.10,370.41 L 234.26,370.38 L 233.39,370.37 M 188.73,367.50 L 187.78,367.64 L 187.62,367.74 L 187.38,368.17 L 187.27,368.42 L 187.12,369.10 L 187.00,369.81 L 187.03,371.58 L 187.08,372.46 L 187.43,374.01 L 187.53,374.36 L 187.79,374.88 L 188.25,375.34 L 188.42,375.41 L 189.35,375.54 L 189.89,375.60 L 191.41,375.72 L 192.22,375.77 L 194.14,375.85 L 197.25,375.92 L 205.00,376.00 L 205.00,368.29 L 196.78,367.72 L 195.65,367.64 L 193.52,367.54 L 192.50,367.50 L 190.74,367.46 L 189.92,367.46 M 293.00,112.00 L 293.00,116.97 L 293.07,118.26 L 293.13,118.82 L 293.46,119.45 L 293.68,119.71 L 294.47,119.92 L 296.37,120.00 L 296.51,120.00 L 297.04,120.02 L 297.34,120.03 L 298.18,120.07 L 298.64,120.09 L 299.76,120.15 L 300.36,120.18 L 301.75,120.26 L 303.20,120.34 L 306.81,120.55 L 308.72,120.66 L 313.11,120.93 L 315.39,121.07 L 320.40,121.39 L 322.96,121.55 L 328.40,121.90 L 333.93,122.25 L 345.56,123.01 L 351.36,123.39 L 362.51,124.14 L 365.20,124.32 L 370.27,124.66 L 372.73,124.83 L 377.20,125.14 L 379.34,125.29 L 383.05,125.56 L 384.79,125.68 L 387.56,125.89 L 388.19,125.94 L 389.24,126.03 L 389.72,126.06 L 390.48,126.13 L 390.82,126.16 L 391.26,126.21 L 391.54,126.25 L 391.55,126.27 L 391.33,126.98 L 391.18,127.43 L 390.64,128.95 L 390.34,129.81 L 389.53,132.05 L 389.10,133.25 L 388.05,136.12 L 387.50,137.63 L 386.25,141.04 L 385.60,142.81 L 384.17,146.67 L 383.44,148.65 L 381.87,152.87 L 379.39,159.50 L 378.54,161.77 L 376.91,166.14 L 376.11,168.28 L 374.59,172.34 L 373.85,174.32 L 372.49,177.97 L 371.84,179.74 L 370.66,182.89 L 370.10,184.40 L 369.15,186.98 L 368.70,188.18 L 368.00,190.08 L 367.69,190.93 L 367.28,192.06 L 367.02,192.80 L 367.02,192.84 L 367.28,193.02 L 367.45,193.13 L 367.98,193.42 L 368.57,193.73 L 370.19,194.48 L 371.01,194.85 L 372.55,195.48 L 372.90,195.62 L 373.46,195.81 L 374.00,195.95 L 374.02,195.95 L 374.12,195.76 L 374.19,195.64 L 374.38,195.20 L 374.60,194.71 L 375.28,193.05 L 375.66,192.11 L 376.63,189.64 L 377.16,188.31 L 378.39,185.12 L 379.03,183.45 L 380.49,179.66 L 381.24,177.69 L 382.87,173.39 L 383.70,171.18 L 385.47,166.47 L 386.37,164.07 L 388.24,159.05 L 389.19,156.51 L 390.99,151.60 L 391.87,149.18 L 393.53,144.59 L 394.33,142.34 L 395.81,138.17 L 396.52,136.15 L 397.77,132.51 L 398.36,130.76 L 399.36,127.75 L 399.82,126.34 L 400.53,124.07 L 400.84,123.04 L 401.22,121.62 L 401.38,120.55 L 401.22,120.12 L 400.33,119.30 L 398.64,118.51 L 398.56,118.49 L 398.14,118.44 L 397.89,118.41 L 397.15,118.34 L 396.74,118.30 L 395.69,118.22 L 395.13,118.17 L 393.80,118.07 L 392.40,117.96 L 388.86,117.70 L 386.97,117.56 L 382.58,117.25 L 380.29,117.09 L 375.22,116.74 L 372.62,116.57 L 367.05,116.20 L 361.38,115.82 L 349.28,115.04 L 343.21,114.65 L 331.34,113.90 L 328.46,113.72 L 322.96,113.39 L 320.27,113.22 L 315.31,112.93 L 312.91,112.79 L 308.66,112.54 L 306.64,112.43 L 303.26,112.25 L 302.48,112.21 L 301.11,112.14 L 300.46,112.11 L 299.37,112.06 L 298.86,112.04 L 298.07,112.01 L 297.25,111.99 Z" fill="rgba(133,130,242,1)"/>
<path d="M 183.75,298.68 L 184.69,298.82 L 185.21,298.90 L 186.52,299.16 L 188.75,299.67 L 189.54,299.86 L 191.81,300.23 L 193.02,300.41 L 195.88,300.73 L 204.93,301.29 L 215.37,301.50 L 225.70,314.50 L 226.59,315.62 L 228.19,317.63 L 228.97,318.60 L 230.35,320.34 L 231.02,321.17 L 232.19,322.66 L 232.74,323.37 L 233.71,324.61 L 234.16,325.21 L 234.93,326.24 L 235.29,326.73 L 235.86,327.57 L 236.38,328.36 L 236.87,329.45 L 237.03,329.92 L 236.84,330.48 L 236.67,330.71 L 235.85,330.91 L 235.36,330.98 L 233.97,330.98 L 231.29,330.93 L 230.35,330.93 L 228.24,330.80 L 227.16,330.72 L 224.96,330.47 L 223.87,330.34 L 221.83,330.01 L 220.86,329.84 L 219.26,329.46 L 217.57,329.00 L 214.11,327.75 L 212.38,327.07 L 209.03,325.46 L 207.39,324.63 L 204.40,322.79 L 200.56,319.92 L 200.15,319.56 L 198.86,318.23 L 198.16,317.48 L 196.43,315.55 L 195.53,314.53 L 193.57,312.24 L 192.57,311.07 L 190.55,308.65 L 189.56,307.45 L 187.69,305.16 L 186.80,304.04 L 185.28,302.10 L 184.59,301.19 L 183.62,299.84 L 183.42,299.55 L 183.16,299.13 L 183.00,298.74 L 183.00,298.68 L 183.45,298.67 M 248.73,292.72 L 249.56,293.24 L 249.76,293.45 L 250.34,294.13 L 250.66,294.51 L 251.46,295.49 L 251.89,296.01 L 252.88,297.25 L 253.40,297.90 L 254.54,299.34 L 255.72,300.82 L 258.36,304.21 L 259.71,305.93 L 262.47,309.51 L 263.83,311.29 L 266.41,314.67 L 267.65,316.30 L 269.76,319.10 L 270.24,319.75 L 271.06,320.87 L 271.45,321.39 L 272.05,322.23 L 272.32,322.61 L 272.66,323.12 L 272.84,323.47 L 272.74,323.56 L 271.87,323.92 L 271.34,324.12 L 269.77,324.65 L 268.92,324.93 L 266.87,325.57 L 265.81,325.90 L 263.51,326.59 L 261.18,327.28 L 256.72,328.50 L 255.69,328.78 L 253.96,329.21 L 252.08,329.60 L 248.21,330.22 L 240.79,320.86 L 239.93,319.77 L 238.35,317.77 L 237.57,316.79 L 236.16,315.00 L 234.78,313.27 L 232.51,310.38 L 231.45,309.03 L 229.74,306.84 L 228.95,305.82 L 227.73,304.22 L 227.17,303.49 L 226.36,302.39 L 226.00,301.90 L 225.53,301.19 L 225.33,300.88 L 225.11,300.47 L 225.00,300.07 L 225.00,299.97 L 225.45,299.68 L 225.75,299.52 L 226.69,299.17 L 227.21,298.98 L 228.52,298.60 L 230.75,298.05 L 231.54,297.87 L 233.45,297.36 L 234.44,297.09 L 236.56,296.45 L 237.62,296.11 L 239.69,295.41 L 242.45,294.38 L 243.64,293.90 L 245.44,293.25 L 246.26,292.97 L 247.44,292.71 L 247.98,292.62 M 276.69,276.32 L 276.88,276.53 L 277.49,277.23 L 277.83,277.62 L 278.70,278.67 L 279.16,279.23 L 280.26,280.57 L 280.83,281.28 L 282.13,282.88 L 282.79,283.70 L 284.24,285.52 L 289.02,291.56 L 289.89,292.67 L 291.47,294.67 L 292.23,295.63 L 293.59,297.34 L 294.25,298.17 L 295.39,299.63 L 295.94,300.33 L 296.87,301.58 L 297.30,302.18 L 298.02,303.23 L 298.35,303.73 L 298.85,304.62 L 299.30,305.48 L 299.57,306.84 L 299.59,307.48 L 299.02,308.58 L 298.64,309.12 L 297.24,310.20 L 296.44,310.76 L 294.24,312.07 L 290.02,314.53 L 288.99,315.14 L 287.02,316.26 L 286.06,316.80 L 284.37,317.69 L 283.58,318.09 L 282.37,318.65 L 281.29,319.00 L 281.21,319.00 L 280.89,318.81 L 280.72,318.69 L 280.23,318.27 L 279.72,317.81 L 278.28,316.29 L 277.50,315.46 L 275.69,313.36 L 274.76,312.26 L 272.77,309.79 L 271.77,308.52 L 269.58,305.74 L 268.48,304.33 L 266.27,301.53 L 265.19,300.15 L 263.23,297.64 L 260.85,294.60 L 256.19,288.61 L 262.85,284.73 L 264.68,283.66 L 268.48,281.28 L 269.37,280.70 L 270.92,279.67 L 272.68,278.42 L 273.56,277.76 L 275.07,276.71 L 275.40,276.49 L 275.91,276.19 L 276.34,276.00 L 276.37,276.00 M 308.37,264.40 L 310.55,267.18 L 315.11,272.97 L 316.18,274.32 L 318.04,276.69 L 318.47,277.24 L 319.22,278.19 L 320.16,279.38 L 321.21,280.72 L 322.87,283.18 L 323.22,283.73 L 323.70,284.61 L 324.00,285.46 L 324.00,285.53 L 323.83,285.82 L 323.72,285.99 L 323.35,286.48 L 322.93,287.01 L 321.61,288.50 L 320.90,289.30 L 319.15,291.17 L 318.24,292.13 L 316.29,294.14 L 315.31,295.14 L 313.38,297.05 L 312.44,297.98 L 310.76,299.57 L 309.98,300.30 L 308.78,301.33 L 308.52,301.55 L 308.14,301.83 L 307.78,302.00 L 307.75,302.00 L 307.44,301.68 L 307.25,301.48 L 306.64,300.78 L 306.30,300.38 L 305.44,299.34 L 304.97,298.78 L 303.88,297.44 L 303.31,296.74 L 302.02,295.14 L 301.35,294.31 L 299.91,292.50 L 298.43,290.65 L 295.14,286.48 L 282.96,270.95 L 291.69,262.62 L 300.42,254.29 M 330.41,240.66 L 332.00,242.69 L 334.91,246.51 L 335.60,247.43 L 336.88,249.14 L 337.49,249.98 L 338.59,251.50 L 339.12,252.23 L 340.01,253.50 L 340.43,254.10 L 341.09,255.09 L 341.38,255.55 L 341.76,256.20 L 342.00,256.77 L 342.00,256.94 L 341.88,257.46 L 341.80,257.74 L 341.54,258.46 L 341.25,259.23 L 340.32,261.23 L 339.81,262.29 L 338.56,264.67 L 337.91,265.89 L 336.49,268.39 L 335.78,269.63 L 334.36,271.98 L 333.66,273.12 L 332.38,275.05 L 331.77,275.94 L 330.78,277.19 L 330.56,277.44 L 330.20,277.78 L 329.81,277.99 L 329.76,277.99 L 329.42,277.68 L 329.22,277.48 L 328.59,276.79 L 328.25,276.40 L 327.37,275.38 L 326.90,274.83 L 325.81,273.52 L 325.23,272.83 L 323.95,271.26 L 323.29,270.45 L 321.86,268.67 L 320.39,266.85 L 317.16,262.75 L 305.21,247.50 L 307.45,244.50 L 307.76,244.09 L 308.68,242.72 L 309.18,241.96 L 310.37,240.08 L 314.25,233.68 L 318.81,225.86 M 218.11,206.78 L 218.21,206.86 L 218.50,207.21 L 218.82,207.61 L 219.68,209.07 L 220.15,209.88 L 221.23,212.01 L 222.98,215.74 L 223.62,217.17 L 224.71,219.56 L 225.23,220.68 L 226.17,222.56 L 226.63,223.45 L 227.52,224.97 L 227.98,225.69 L 228.96,226.99 L 229.47,227.62 L 230.64,228.83 L 231.26,229.44 L 232.75,230.73 L 233.54,231.39 L 235.45,232.88 L 238.92,235.50 L 240.02,236.32 L 242.03,237.88 L 242.99,238.62 L 244.58,239.91 L 245.31,240.50 L 246.31,241.38 L 246.96,242.08 L 246.96,242.11 L 246.49,242.24 L 246.18,242.31 L 245.14,242.52 L 244.56,242.63 L 243.04,242.90 L 242.23,243.05 L 240.31,243.37 L 239.30,243.54 L 237.06,243.91 L 235.90,244.09 L 233.41,244.49 L 230.87,244.89 L 225.40,245.73 L 222.65,246.14 L 217.23,246.94 L 214.58,247.33 L 209.86,247.99 L 208.75,248.14 L 206.77,248.41 L 205.83,248.53 L 204.24,248.72 L 203.51,248.81 L 202.39,248.93 L 201.34,249.00 L 201.26,249.00 L 201.27,248.58 L 201.31,248.31 L 201.54,247.39 L 201.68,246.87 L 202.12,245.49 L 202.36,244.75 L 202.97,242.97 L 203.30,242.03 L 204.08,239.91 L 204.49,238.80 L 205.41,236.38 L 206.37,233.89 L 208.64,228.25 L 209.80,225.40 L 211.98,220.13 L 212.51,218.87 L 213.49,216.54 L 213.97,215.41 L 214.84,213.37 L 215.26,212.40 L 215.99,210.72 L 216.33,209.93 L 216.90,208.67 L 217.16,208.10 L 217.54,207.31 L 217.86,206.74 L 217.92,206.68 M 334.37,193.78 L 335.90,195.73 L 338.57,199.44 L 339.84,201.27 L 342.00,204.80 L 343.01,206.55 L 344.67,209.96 L 345.44,211.66 L 346.64,215.02 L 347.18,216.71 L 347.92,220.09 L 348.24,221.80 L 348.55,225.28 L 348.66,227.04 L 348.57,230.68 L 348.01,236.40 L 347.85,237.53 L 347.50,239.69 L 347.33,240.73 L 346.98,242.55 L 346.81,243.40 L 346.51,244.68 L 346.14,245.77 L 346.09,245.86 L 345.78,245.75 L 345.59,245.65 L 345.02,245.18 L 344.70,244.90 L 343.90,244.10 L 343.46,243.66 L 342.44,242.54 L 341.90,241.94 L 340.67,240.53 L 340.03,239.79 L 338.62,238.11 L 337.90,237.23 L 336.32,235.30 L 335.52,234.30 L 333.80,232.13 L 322.17,217.36 L 324.12,210.43 L 324.39,209.48 L 324.94,207.01 L 325.21,205.72 L 325.71,202.83 L 325.96,201.37 L 326.36,198.41 L 326.79,194.28 L 327.50,185.07 Z" fill="rgba(223,171,65,1)"/>
<path d="M 98.03,172.15 L 98.32,172.24 L 99.12,172.56 L 99.55,172.73 L 100.60,173.20 L 101.15,173.45 L 102.40,174.03 L 103.70,174.65 L 106.70,176.14 L 108.24,176.92 L 111.45,178.59 L 113.05,179.43 L 116.11,181.09 L 117.59,181.90 L 120.13,183.34 L 120.71,183.68 L 121.72,184.29 L 122.19,184.58 L 122.94,185.07 L 123.28,185.29 L 123.72,185.64 L 124.00,185.97 L 124.00,186.14 L 123.45,186.75 L 123.09,187.09 L 121.93,187.99 L 121.29,188.47 L 119.68,189.57 L 118.84,190.13 L 116.92,191.33 L 114.96,192.54 L 110.74,194.90 L 109.71,195.45 L 107.77,196.42 L 105.17,197.59 L 103.56,198.24 L 100.01,199.25 L 98.22,199.71 L 94.63,200.28 L 92.86,200.51 L 89.60,200.60 L 88.05,200.58 L 85.50,200.13 L 85.09,200.02 L 83.60,199.45 L 82.76,199.11 L 80.63,198.16 L 79.51,197.65 L 77.01,196.45 L 73.13,194.51 L 63.76,189.67 L 70.46,187.26 L 72.38,186.57 L 76.16,184.93 L 78.04,184.08 L 81.68,182.13 L 83.48,181.13 L 86.89,178.93 L 91.67,175.40 L 92.81,174.46 L 95.07,173.00 L 95.59,172.69 L 96.46,172.27 L 97.40,172.00 L 97.52,172.00 M 113.27,28.35 L 114.33,28.43 L 116.35,28.76 L 117.35,28.96 L 119.27,29.54 L 120.21,29.86 L 122.01,30.68 L 122.90,31.12 L 124.57,32.17 L 125.39,32.73 L 126.94,34.02 L 127.69,34.69 L 129.10,36.22 L 129.79,37.01 L 131.07,38.76 L 131.68,39.67 L 132.81,41.65 L 133.36,42.67 L 134.34,44.88 L 135.63,48.45 L 135.93,49.43 L 136.45,51.76 L 136.69,52.97 L 137.08,55.71 L 137.26,57.12 L 137.51,60.16 L 137.62,61.71 L 137.74,64.94 L 137.83,68.19 L 137.59,74.80 L 137.49,76.42 L 137.19,79.55 L 136.57,83.96 L 136.06,86.93 L 134.67,92.86 L 133.92,95.82 L 132.11,101.71 L 131.14,104.65 L 128.93,110.45 L 127.77,113.34 L 125.19,119.01 L 123.86,121.82 L 120.96,127.31 L 119.47,130.02 L 116.28,135.28 L 114.66,137.88 L 111.22,142.86 L 109.48,145.31 L 105.84,149.97 L 103.99,152.26 L 100.17,156.55 L 98.25,158.65 L 94.30,162.52 L 92.31,164.41 L 88.26,167.82 L 86.23,169.46 L 82.13,172.37 L 80.07,173.75 L 75.94,176.10 L 73.88,177.21 L 69.77,178.95 L 67.72,179.75 L 63.67,180.84 L 57.69,181.71 L 56.17,181.79 L 53.81,181.82 L 52.72,181.81 L 50.90,181.59 L 50.02,181.44 L 48.33,180.91 L 47.47,180.60 L 45.50,179.68 L 43.93,178.92 L 41.29,177.24 L 40.03,176.36 L 37.90,174.32 L 36.88,173.24 L 35.08,170.66 L 32.60,166.00 L 31.56,163.71 L 30.04,158.72 L 29.38,156.15 L 28.59,150.68 L 28.29,147.89 L 28.20,142.02 L 28.23,139.04 L 28.79,132.87 L 29.15,129.76 L 30.32,123.37 L 30.98,120.16 L 32.72,113.65 L 33.66,110.39 L 35.94,103.84 L 37.14,100.58 L 39.91,94.08 L 41.35,90.85 L 44.57,84.50 L 46.24,81.35 L 49.87,75.22 L 51.74,72.20 L 55.75,66.39 L 57.80,63.54 L 62.14,58.14 L 64.35,55.51 L 68.99,50.60 L 71.35,48.23 L 76.24,43.91 L 78.72,41.83 L 83.83,38.19 L 91.70,33.58 L 94.35,32.25 L 99.42,30.35 L 101.91,29.52 L 106.63,28.61 L 108.94,28.28 M 127.86,133.28 L 128.09,133.35 L 128.81,133.65 L 129.21,133.83 L 130.22,134.30 L 130.76,134.56 L 132.01,135.18 L 133.32,135.84 L 136.43,137.47 L 138.04,138.32 L 141.45,140.17 L 143.15,141.10 L 146.44,142.94 L 148.03,143.84 L 150.78,145.45 L 151.41,145.82 L 152.51,146.49 L 153.02,146.81 L 153.84,147.34 L 154.21,147.59 L 154.70,147.95 L 155.00,148.28 L 155.00,148.46 L 154.75,149.11 L 154.59,149.47 L 154.06,150.46 L 153.75,151.00 L 152.97,152.27 L 152.54,152.94 L 151.55,154.45 L 150.51,156.01 L 147.97,159.60 L 146.65,161.44 L 143.80,165.25 L 142.38,167.15 L 139.55,170.76 L 138.17,172.50 L 135.70,175.48 L 135.11,176.16 L 134.07,177.33 L 133.57,177.88 L 132.73,178.75 L 132.34,179.13 L 131.73,179.64 L 131.15,179.92 L 131.10,179.91 L 130.75,179.76 L 130.53,179.66 L 129.87,179.33 L 129.50,179.15 L 128.56,178.67 L 128.05,178.41 L 126.87,177.80 L 125.63,177.15 L 122.60,175.55 L 121.01,174.70 L 117.50,172.81 L 115.71,171.85 L 112.42,170.06 L 110.85,169.20 L 108.21,167.75 L 107.61,167.42 L 106.57,166.84 L 106.08,166.57 L 105.31,166.13 L 104.95,165.93 L 104.48,165.66 L 104.14,165.45 L 104.09,165.40 L 104.46,164.78 L 104.71,164.40 L 105.58,163.21 L 106.08,162.56 L 107.35,160.98 L 109.56,158.31 L 110.36,157.37 L 112.28,154.95 L 113.27,153.68 L 115.39,150.86 L 116.45,149.42 L 118.51,146.53 L 121.26,142.50 L 122.08,141.26 L 123.58,138.98 L 124.30,137.89 L 125.52,136.06 L 126.08,135.22 L 126.88,134.04 L 127.05,133.79 L 127.28,133.46 L 127.45,133.22 L 127.49,133.18 M 93.08,71.06 L 91.80,72.57 L 89.44,75.31 L 88.31,76.62 L 86.40,78.79 L 85.96,79.28 L 85.20,80.13 L 84.84,80.52 L 84.26,81.14 L 84.00,81.41 L 83.64,81.78 L 83.37,82.00 L 83.31,82.00 L 82.73,81.76 L 82.38,81.61 L 81.31,81.11 L 80.73,80.84 L 79.32,80.15 L 76.96,78.98 L 70.98,75.96 L 69.31,79.47 L 68.85,80.43 L 68.26,82.06 L 68.15,82.41 L 68.04,82.94 L 68.07,83.37 L 68.13,83.42 L 68.62,83.71 L 68.92,83.88 L 69.80,84.36 L 73.36,86.20 L 78.21,88.64 L 66.05,102.94 L 64.97,104.21 L 63.05,106.50 L 62.13,107.61 L 60.52,109.58 L 59.75,110.53 L 58.44,112.20 L 57.82,113.00 L 56.80,114.39 L 56.32,115.06 L 55.57,116.18 L 55.23,116.71 L 54.74,117.59 L 54.53,118.00 L 54.29,118.64 L 54.20,119.37 L 54.23,119.57 L 54.48,120.04 L 54.65,120.29 L 55.22,120.86 L 55.55,121.16 L 56.47,121.86 L 56.98,122.23 L 58.31,123.09 L 59.04,123.54 L 60.82,124.59 L 61.77,125.14 L 64.05,126.41 L 65.26,127.08 L 68.09,128.60 L 73.00,131.20 L 91.50,140.90 L 93.32,137.35 L 93.82,136.38 L 94.51,134.78 L 94.65,134.44 L 94.80,133.94 L 94.86,133.73 L 94.82,133.56 L 94.80,133.55 L 94.46,133.36 L 94.24,133.24 L 93.53,132.86 L 93.14,132.65 L 92.11,132.10 L 91.57,131.81 L 90.26,131.12 L 88.90,130.40 L 85.50,128.62 L 79.75,125.60 L 77.72,124.54 L 74.02,122.56 L 72.26,121.61 L 69.33,119.98 L 68.66,119.61 L 67.53,118.95 L 67.00,118.65 L 66.16,118.14 L 65.79,117.91 L 65.30,117.58 L 65.00,117.31 L 65.00,117.27 L 65.21,116.93 L 65.35,116.73 L 65.81,116.11 L 66.07,115.77 L 66.75,114.91 L 67.11,114.45 L 67.96,113.39 L 68.85,112.28 L 71.02,109.65 L 72.15,108.29 L 74.57,105.40 L 75.79,103.96 L 78.18,101.15 L 79.34,99.79 L 81.42,97.40 L 81.90,96.85 L 82.76,95.88 L 83.17,95.42 L 83.86,94.67 L 84.18,94.32 L 84.65,93.84 L 85.08,93.45 L 85.21,93.37 L 86.11,93.58 L 86.65,93.74 L 88.23,94.35 L 89.09,94.71 L 91.15,95.64 L 94.53,97.32 L 103.08,101.75 L 104.54,98.93 L 104.94,98.15 L 105.57,96.63 L 105.70,96.28 L 105.88,95.69 L 106.00,95.06 L 106.00,94.92 L 105.43,94.37 L 105.06,94.06 L 103.87,93.26 L 103.21,92.84 L 101.57,91.89 L 98.75,90.40 L 97.75,89.90 L 95.91,88.96 L 95.02,88.51 L 93.52,87.74 L 92.84,87.38 L 91.85,86.85 L 91.14,86.44 L 91.12,86.42 L 91.25,86.17 L 91.34,86.02 L 91.68,85.53 L 91.88,85.26 L 92.42,84.55 L 92.71,84.17 L 93.42,83.28 L 94.17,82.34 L 96.08,80.03 L 99.39,76.12 L 100.58,74.75 L 102.74,72.16 L 103.76,70.92 L 105.47,68.77 L 106.25,67.78 L 107.32,66.31 L 107.54,65.99 L 107.82,65.54 L 108.00,65.13 L 108.00,64.99 L 107.78,64.59 L 107.63,64.37 L 107.17,63.84 L 105.19,62.13 L 102.37,60.13 M 145.17,88.15 L 145.39,88.24 L 146.08,88.56 L 146.45,88.74 L 147.41,89.21 L 147.92,89.46 L 149.09,90.05 L 150.32,90.66 L 153.24,92.16 L 154.75,92.94 L 157.95,94.62 L 159.55,95.46 L 162.67,97.12 L 164.19,97.93 L 166.84,99.37 L 167.46,99.71 L 168.55,100.31 L 169.06,100.60 L 169.91,101.08 L 170.30,101.30 L 170.85,101.64 L 171.31,101.95 L 171.45,102.09 L 171.58,102.75 L 171.62,103.13 L 171.56,104.23 L 171.50,104.83 L 171.27,106.30 L 171.13,107.08 L 170.74,108.86 L 170.32,110.70 L 169.12,115.01 L 168.47,117.23 L 166.97,121.87 L 166.19,124.18 L 164.57,128.60 L 163.76,130.74 L 162.19,134.40 L 161.81,135.24 L 161.10,136.69 L 160.75,137.37 L 160.12,138.44 L 159.81,138.92 L 159.28,139.54 L 158.61,139.89 L 158.54,139.88 L 158.12,139.72 L 157.87,139.62 L 157.14,139.29 L 156.74,139.10 L 155.74,138.62 L 155.21,138.36 L 153.97,137.74 L 152.67,137.09 L 149.55,135.48 L 147.92,134.63 L 144.36,132.74 L 131.22,125.70 L 134.05,119.39 L 134.41,118.59 L 135.23,116.59 L 135.65,115.53 L 136.55,113.13 L 137.47,110.66 L 139.36,105.15 L 140.28,102.40 L 141.87,97.25 L 142.23,96.04 L 142.82,93.90 L 143.47,91.25 L 143.66,90.36 L 144.13,88.95 L 144.24,88.66 L 144.46,88.26 L 144.75,88.00 L 144.80,88.00 M 144.50,42.36 L 145.09,42.60 L 146.66,43.35 L 147.50,43.76 L 149.43,44.79 L 150.43,45.34 L 152.54,46.54 L 154.66,47.78 L 158.66,50.32 L 159.58,50.92 L 161.13,52.02 L 162.84,53.39 L 163.59,54.09 L 164.97,55.64 L 165.63,56.44 L 166.85,58.20 L 167.43,59.11 L 168.49,61.10 L 169.00,62.13 L 169.90,64.37 L 170.34,65.53 L 171.10,68.04 L 171.46,69.33 L 172.09,72.13 L 172.38,73.56 L 172.88,76.66 L 173.48,81.67 L 173.63,83.17 L 173.70,85.99 L 173.70,87.34 L 173.51,89.61 L 173.39,90.65 L 172.97,92.08 L 172.86,92.36 L 172.59,92.73 L 172.14,92.92 L 172.10,92.92 L 171.76,92.77 L 171.55,92.68 L 170.91,92.37 L 170.55,92.19 L 169.64,91.74 L 169.16,91.49 L 168.02,90.91 L 166.83,90.30 L 163.90,88.77 L 162.38,87.97 L 159.00,86.17 L 146.50,79.50 L 145.88,65.50 L 145.79,63.48 L 145.51,59.55 L 145.36,57.62 L 145.00,54.12 L 144.80,52.46 L 144.38,49.70 L 144.27,49.07 L 144.06,48.01 L 143.72,46.75 L 143.49,46.02 L 143.16,44.77 L 143.02,44.19 L 142.88,43.28 L 142.84,42.86 L 142.90,42.33 L 143.22,42.00 L 143.47,42.00 Z" fill="rgba(231,231,231,1)"/>
<path d="M 197.48,293.07 L 194.76,292.64 L 189.73,291.42 L 187.27,290.75 L 182.76,289.04 L 180.57,288.13 L 176.59,285.96 L 174.66,284.81 L 171.22,282.16 L 169.56,280.78 L 166.66,277.67 L 165.28,276.06 L 162.93,272.49 L 161.83,270.65 L 160.04,266.63 L 158.00,260.10 L 157.79,259.22 L 157.50,257.09 L 157.37,255.98 L 157.23,253.47 L 157.12,250.90 L 157.33,245.16 L 157.50,242.27 L 158.23,236.66 L 158.44,235.31 L 158.94,232.82 L 159.82,229.50 L 160.44,227.54 L 161.91,223.64 L 162.68,221.69 L 164.43,217.83 L 165.34,215.90 L 167.35,212.09 L 168.39,210.20 L 170.65,206.46 L 172.97,202.74 L 178.30,195.57 L 181.07,192.04 L 187.21,185.34 L 190.38,182.06 L 197.22,175.94 L 200.72,172.97 L 208.16,167.55 L 211.93,164.95 L 219.84,160.36 L 232.11,154.52 L 235.01,153.34 L 240.71,151.37 L 243.54,150.44 L 249.07,148.98 L 251.81,148.31 L 257.15,147.35 L 259.79,146.94 L 264.91,146.47 L 267.44,146.30 L 272.32,146.31 L 274.72,146.37 L 279.33,146.86 L 281.59,147.16 L 285.90,148.10 L 288.01,148.63 L 291.99,150.03 L 293.94,150.78 L 297.57,152.61 L 299.33,153.58 L 302.58,155.85 L 304.16,157.03 L 307.00,159.71 L 308.37,161.11 L 310.78,164.20 L 311.93,165.80 L 313.88,169.29 L 314.80,171.08 L 316.27,174.96 L 316.94,176.94 L 317.89,181.20 L 318.72,188.00 L 318.88,190.62 L 318.63,195.93 L 318.42,198.60 L 317.48,203.99 L 316.93,206.69 L 315.33,212.10 L 314.45,214.81 L 312.24,220.20 L 311.06,222.89 L 308.28,228.21 L 306.82,230.86 L 303.50,236.08 L 301.78,238.67 L 297.97,243.73 L 296.01,246.23 L 291.76,251.09 L 289.57,253.48 L 284.91,258.09 L 282.53,260.36 L 277.50,264.67 L 274.94,266.79 L 269.58,270.77 L 266.87,272.71 L 261.22,276.30 L 258.37,278.04 L 252.49,281.21 L 249.52,282.73 L 243.43,285.42 L 240.37,286.70 L 234.12,288.87 L 224.61,291.48 L 222.60,291.94 L 217.87,292.64 L 215.44,292.95 L 210.39,293.33 L 207.89,293.48 L 203.24,293.49 L 202.13,293.47 L 200.12,293.36 L 199.15,293.29 M 229.00,253.51 L 231.79,253.10 L 236.73,252.35 L 239.10,251.99 L 243.24,251.34 L 245.21,251.02 L 248.60,250.46 L 250.20,250.18 L 252.87,249.69 L 254.13,249.45 L 256.14,249.02 L 257.07,248.81 L 258.48,248.44 L 259.11,248.26 L 259.95,247.93 L 260.63,247.48 L 260.73,247.35 L 261.17,246.45 L 261.43,245.90 L 262.17,244.25 L 262.57,243.34 L 263.55,241.05 L 264.07,239.83 L 265.25,237.02 L 265.87,235.55 L 267.21,232.32 L 267.89,230.67 L 269.34,227.13 L 270.82,223.54 L 273.90,215.93 L 275.44,212.13 L 278.38,204.75 L 279.10,202.96 L 280.43,199.58 L 281.08,197.93 L 282.26,194.92 L 282.82,193.46 L 283.79,190.93 L 284.25,189.73 L 284.97,187.78 L 285.30,186.88 L 285.73,185.63 L 286.00,184.66 L 286.00,184.18 L 285.85,183.40 L 285.72,183.04 L 285.15,182.52 L 284.79,182.29 L 283.56,182.03 L 282.85,181.94 L 280.73,181.95 L 280.14,181.97 L 278.74,182.07 L 278.01,182.12 L 276.31,182.29 L 275.42,182.38 L 273.39,182.62 L 272.33,182.75 L 269.94,183.06 L 268.70,183.23 L 265.91,183.61 L 264.47,183.81 L 261.27,184.27 L 259.62,184.52 L 255.97,185.05 L 249.96,185.95 L 247.49,186.32 L 242.83,187.03 L 240.56,187.38 L 236.33,188.06 L 234.28,188.39 L 230.54,189.02 L 228.74,189.33 L 225.55,189.90 L 224.03,190.17 L 221.45,190.67 L 220.25,190.91 L 218.34,191.32 L 217.47,191.52 L 216.29,191.84 L 215.40,192.21 L 215.29,192.32 L 214.83,193.18 L 214.56,193.70 L 213.82,195.31 L 213.41,196.20 L 212.42,198.44 L 211.90,199.63 L 210.71,202.41 L 210.09,203.85 L 208.75,207.04 L 208.06,208.68 L 206.61,212.18 L 205.14,215.73 L 202.06,223.30 L 200.52,227.09 L 197.58,234.46 L 196.88,236.25 L 195.55,239.64 L 194.90,241.30 L 193.73,244.33 L 193.17,245.80 L 192.20,248.37 L 191.74,249.59 L 191.02,251.59 L 190.70,252.51 L 190.27,253.83 L 190.00,254.92 L 190.00,255.56 L 190.49,256.63 L 190.80,257.13 L 191.80,257.88 L 192.34,258.21 L 193.71,258.54 L 196.00,258.48 L 196.17,258.45 L 197.12,258.30 L 197.70,258.20 L 199.38,257.94 L 200.30,257.80 L 202.62,257.45 L 203.85,257.26 L 206.73,256.82 L 208.22,256.60 L 211.55,256.10 L 213.26,255.84 L 216.96,255.29 L 220.73,254.73 M 245.10,229.67 L 234.71,221.50 L 229.72,210.22 L 229.03,208.67 L 227.81,205.81 L 227.24,204.44 L 226.32,202.12 L 225.91,201.06 L 225.40,199.55 L 225.30,199.24 L 225.19,198.81 L 225.18,198.49 L 225.22,198.45 L 225.83,198.29 L 226.22,198.21 L 227.47,197.97 L 228.16,197.84 L 229.93,197.54 L 230.88,197.38 L 233.10,197.01 L 234.26,196.83 L 236.82,196.42 L 238.14,196.22 L 240.96,195.78 L 243.83,195.34 L 249.93,194.44 L 252.98,193.99 L 258.90,193.14 L 260.33,192.94 L 263.03,192.57 L 264.34,192.39 L 266.73,192.07 L 267.88,191.92 L 269.88,191.66 L 270.82,191.55 L 272.33,191.38 L 273.01,191.30 L 273.93,191.22 L 274.56,191.23 L 274.59,191.25 L 274.43,191.80 L 274.32,192.15 L 273.91,193.28 L 273.68,193.92 L 273.07,195.55 L 272.74,196.42 L 271.95,198.47 L 271.53,199.54 L 270.60,201.92 L 270.13,203.14 L 269.09,205.76 L 268.03,208.42 L 265.75,214.10 L 264.61,216.94 L 262.35,222.47 L 261.81,223.81 L 260.76,226.34 L 260.25,227.57 L 259.31,229.83 L 258.86,230.91 L 258.06,232.80 L 257.67,233.69 L 257.04,235.14 L 256.75,235.79 L 256.33,236.70 L 255.97,237.36 L 255.94,237.40 L 255.66,237.29 L 255.49,237.21 L 254.97,236.90 L 254.67,236.72 L 253.92,236.23 L 253.53,235.96 L 252.58,235.30 L 251.60,234.60 L 249.18,232.80 L 247.91,231.85 Z" fill="rgba(241,193,77,1)"/>
</g>
</svg>